<svg id="time-management" xmlns="http://www.w3.org/2000/svg" width="84.365" height="84.365" viewBox="0 0 84.365 84.365">
  <path id="Path_48771" data-name="Path 48771" d="M99.255,21.493a25.158,25.158,0,0,1,28.627.005l1.7,1.178L141.66,10.6l-2.211-1.72a42.182,42.182,0,0,0-51.761-.006l-2.212,1.72,12.08,12.08Z" transform="translate(-71.382 0)" fill="#ffd92e"/>
  <path id="Path_48772" data-name="Path 48772" d="M387.946,87.688l-1.72-2.212L374.145,97.557l1.177,1.7a25.159,25.159,0,0,1,0,28.619l-1.177,1.7,12.081,12.081,1.72-2.212a42.182,42.182,0,0,0,0-51.752Z" transform="translate(-312.45 -71.381)" fill="#ff3980"/>
  <path id="Path_48773" data-name="Path 48773" d="M127.882,375.286a25.158,25.158,0,0,1-28.627.005l-1.7-1.177-12.08,12.081,2.212,1.72a42.182,42.182,0,0,0,51.761-.006l2.211-1.72-12.08-12.08Z" transform="translate(-71.382 -312.419)" fill="#22a5ff"/>
  <path id="Path_48774" data-name="Path 48774" d="M21.5,127.844a25.159,25.159,0,0,1,0-28.635l1.178-1.7L10.6,85.431l-1.72,2.211a42.183,42.183,0,0,0,0,51.769l1.72,2.211,12.08-12.08Z" transform="translate(0 -71.344)" fill="#00da80"/>
  <circle id="Ellipse_333" data-name="Ellipse 333" cx="16.092" cy="16.092" r="16.092" transform="translate(26.091 26.091)" fill="#fff5f5"/>
  <path id="Path_48775" data-name="Path 48775" d="M271.9,174.317a16.092,16.092,0,0,0-16.092-16.092v32.184A16.092,16.092,0,0,0,271.9,174.317Z" transform="translate(-213.63 -132.134)" fill="#ece6f2"/>
  <path id="Path_48776" data-name="Path 48776" d="M161.79,180.356a18.565,18.565,0,1,1,18.565-18.565A18.586,18.586,0,0,1,161.79,180.356Zm0-32.184a13.618,13.618,0,1,0,13.618,13.618A13.634,13.634,0,0,0,161.79,148.173Z" transform="translate(-119.608 -119.609)" fill="#353a3f"/>
  <g id="Group_41986" data-name="Group 41986" transform="translate(35.898 33.312)">
    <path id="Path_48777" data-name="Path 48777" d="M226.456,213.36H217.7v-4.947h3.811v-6.4h4.947Z" transform="translate(-217.698 -202.016)" fill="#353a3f"/>
  </g>
  <path id="Path_48778" data-name="Path 48778" d="M387.946,87.688l-1.72-2.212L374.145,97.557l1.177,1.7a25.159,25.159,0,0,1,0,28.619l-1.177,1.7,12.081,12.081,1.72-2.212a42.182,42.182,0,0,0,0-51.752Z" transform="translate(-312.45 -71.381)" fill="#e20a6c"/>
  <path id="Path_48779" data-name="Path 48779" d="M271.827,22.676l12.08-12.08L281.7,8.876A41.771,41.771,0,0,0,255.812,0V17.027A25,25,0,0,1,270.129,21.5Z" transform="translate(-213.629 0)" fill="#fcbe00"/>
  <path id="Path_48780" data-name="Path 48780" d="M270.13,375.285a25,25,0,0,1-14.317,4.471v17.027a41.771,41.771,0,0,0,25.885-8.876l2.211-1.72-12.08-12.08Z" transform="translate(-213.63 -312.418)" fill="#4b65ff"/>
  <g id="Group_41987" data-name="Group 41987" transform="translate(42.183 23.617)">
    <path id="Path_48781" data-name="Path 48781" d="M255.812,143.225v4.947a13.618,13.618,0,0,1,0,27.237v4.947a18.565,18.565,0,0,0,0-37.131Z" transform="translate(-255.812 -143.225)" fill="#262a2e"/>
    <path id="Path_48782" data-name="Path 48782" d="M255.812,202.016h2.473V213.36h-2.473Z" transform="translate(-255.812 -192.322)" fill="#262a2e"/>
  </g>
</svg>
