<svg id="lateral-thinking" xmlns="http://www.w3.org/2000/svg" width="76.033" height="76.032" viewBox="0 0 76.033 76.032">
  <path id="Path_48657" data-name="Path 48657" d="M116.935,170.275c.955.329,1.592,1.284,1.737,3.1.019.272,0,4.655-.038,5.369h18.233c-.478-15.355,14.752-26.622,12.092-40.169a20.914,20.914,0,0,0-7.85-12.635c-9.091-6.942-27.712-5.791-34.89,3.192-1.464,2.184.25,2.665.453,4.508.153,1.391-1.608,6.423-1.993,8.646-.514,2.97,1.665,2.953,1.609,5.116-.028,1.094-.751,2.9-2.93,6.235-.62.961-1.114,1.544-.98,2.567.232,1.776,2.84.917,3.684,2.639a2.206,2.206,0,0,1,.029,1.531c-.449,1.01-.367,1.5-.192,1.836a2.416,2.416,0,0,0,1.326.931,3.456,3.456,0,0,0-1.216,1.3,2.341,2.341,0,0,0,.246,1.659,3.208,3.208,0,0,1,.023,1.492c-.138,1.1-.28,2.474.69,3.27.8.653,2.148.645,3.944.49q3.2-.424,6.025-1.086Z" transform="translate(-87.516 -103.739)" fill="#fdb0a0" fill-rule="evenodd"/>
  <path id="Path_48658" data-name="Path 48658" d="M135.1,179.826H146.16c-.478-15.355,14.752-26.622,12.092-40.169a20.915,20.915,0,0,0-7.85-12.635,23.933,23.933,0,0,0-11.861-4.3c-6.385.68-12.45,3.184-15.888,7.487-1.464,2.183.25,2.665.453,4.508.153,1.391-1.608,6.423-1.993,8.646-.514,2.97,1.665,2.953,1.609,5.116-.028,1.094-.751,2.9-2.931,6.235-.62.961-1.114,1.544-.98,2.567.232,1.776,2.84.917,3.684,2.639a2.207,2.207,0,0,1,.029,1.531c-.449,1.01-.367,1.5-.192,1.836a2.415,2.415,0,0,0,1.326.931,3.456,3.456,0,0,0-1.216,1.3,2.34,2.34,0,0,0,.246,1.659,3.206,3.206,0,0,1,.023,1.492c-.138,1.1-.28,2.474.69,3.27a2.574,2.574,0,0,0,1.263.507l.2-.017q3.2-.424,6.025-1.086s1.528-.385,2.273-.6a34.872,34.872,0,0,0,6.742-2.7,1.056,1.056,0,1,1,1,1.859c-5.235,2.814-5.746,2.826-5.808,9.915Z" transform="translate(-101.471 -104.816)" fill="#ffcec0" fill-rule="evenodd"/>
  <path id="Path_48659" data-name="Path 48659" d="M467.716,315.621a2.922,2.922,0,1,1-1.069-3.991A2.922,2.922,0,0,1,467.716,315.621Z" transform="translate(-393.131 -264.889)" fill="#99d100" fill-rule="evenodd"/>
  <path id="Path_48660" data-name="Path 48660" d="M464.151,317.958a2.922,2.922,0,0,1-1.5-4.194,2.909,2.909,0,0,1,1.5-1.272,2.923,2.923,0,0,1,1.5,4.194,2.909,2.909,0,0,1-1.5,1.272Z" transform="translate(-393.13 -265.954)" fill="#a8e304" fill-rule="evenodd"/>
  <ellipse id="Ellipse_302" data-name="Ellipse 302" cx="3.192" cy="3.192" rx="3.192" ry="3.192" transform="translate(33.607 7.274) rotate(-86.846)" fill="#fdc72e"/>
  <g id="Group_41849" data-name="Group 41849" transform="translate(1.057 1.227)">
    <path id="Path_48661" data-name="Path 48661" d="M230.142,18.174a3.193,3.193,0,1,1,2.159-3.021A3.193,3.193,0,0,1,230.142,18.174Z" transform="translate(-195.25 -12.132)" fill="#ffeb87" fill-rule="evenodd"/>
    <path id="Path_48662" data-name="Path 48662" d="M356.525,349.406a3.666,3.666,0,1,1-1.342-5.008,3.666,3.666,0,0,1,1.342,5.008Z" transform="translate(-298.592 -293.856)" fill="#2a92fa" fill-rule="evenodd"/>
    <path id="Path_48663" data-name="Path 48663" d="M352.318,351.928a3.666,3.666,0,1,1,2.143-1.685,3.667,3.667,0,0,1-2.143,1.685Z" transform="translate(-298.593 -294.694)" fill="#4eb1fc" fill-rule="evenodd"/>
    <path id="Path_48664" data-name="Path 48664" d="M80.48,73.372A3.632,3.632,0,1,1,79.15,68.41a3.632,3.632,0,0,1,1.329,4.962Z" transform="translate(-64.243 -59.507)" fill="#99d100" fill-rule="evenodd"/>
    <path id="Path_48665" data-name="Path 48665" d="M76.3,75.885a3.633,3.633,0,0,1,0-6.965,3.632,3.632,0,0,1,0,6.965Z" transform="translate(-64.243 -60.353)" fill="#a8e304" fill-rule="evenodd"/>
    <path id="Path_48666" data-name="Path 48666" d="M18.146,221.976a3.632,3.632,0,1,1-4.449-2.568,3.632,3.632,0,0,1,4.449,2.568Z" transform="translate(-11.005 -188.033)" fill="#2dcffc" fill-rule="evenodd"/>
    <path id="Path_48667" data-name="Path 48667" d="M13.6,227.246a3.633,3.633,0,0,1,0-6.965,3.633,3.633,0,0,1,0,6.965Z" transform="translate(-11.004 -188.88)" fill="#66deff" fill-rule="evenodd"/>
    <path id="Path_48668" data-name="Path 48668" d="M185.948,164.245,183.2,163.7,182,160.8l1.56-2.325-3.215-3.215-2.325,1.56-2.906-1.206-.541-2.745h-4.546l-.541,2.745-2.906,1.206-2.326-1.56-3.215,3.215,1.559,2.325-1.205,2.906-2.745.541v4.546l2.745.541,1.205,2.906-1.559,2.326,3.215,3.215,2.326-1.559,2.906,1.206.541,2.745h4.546l.541-2.745,2.906-1.206,2.325,1.559,3.215-3.215L182,172.239l1.206-2.906,2.745-.541Z" transform="translate(-136.371 -131.635)" fill="#f23353" fill-rule="evenodd"/>
    <path id="Path_48669" data-name="Path 48669" d="M184.621,168.792l-2.745.541-1.206,2.906,1.56,2.326-2.682,2.682-2.038-1.367-3.726,1.546-.541,2.745h-3.219l-.541-2.745-3.726-1.546-2.038,1.367-2.682-2.682,1.559-2.326-1.205-2.906-2.745-.541v-4.546l2.745-.541,1.205-2.906-1.559-2.325,2.682-2.682,2.038,1.367,3.726-1.546.541-2.745h3.219l.541,2.745,3.726,1.546,2.038-1.367,2.682,2.682-1.56,2.325,1.206,2.906,2.745.541Z" transform="translate(-136.371 -131.635)" fill="#ff5471" fill-rule="evenodd"/>
  </g>
  <ellipse id="Ellipse_303" data-name="Ellipse 303" cx="7.023" cy="7.023" rx="7.023" ry="7.023" transform="translate(26.224 38.39) rotate(-58.28)" fill="#f23353"/>
  <ellipse id="Ellipse_304" data-name="Ellipse 304" cx="6.995" cy="6.995" rx="6.995" ry="6.995" transform="matrix(0.952, -0.305, 0.305, 0.952, 28.171, 31.58)" fill="#f3f3ff"/>
  <path id="Path_48670" data-name="Path 48670" d="M345.286,40.092a2.157,2.157,0,0,0,2.15,2.15h7.918a2.157,2.157,0,0,0,2.151-2.15V37.139c0-5.918,6.11-7.581,6.11-15.535,0-7.3-6.11-10.946-12.219-10.946S339.176,14.307,339.176,21.6c0,7.954,6.11,9.616,6.11,15.535v2.953Z" transform="translate(-288.612 -9.654)" fill="#fcdb35" fill-rule="evenodd"/>
  <path id="Path_48671" data-name="Path 48671" d="M345.286,40.092a2.157,2.157,0,0,0,2.15,2.15h5.49a2.157,2.157,0,0,0,2.15-2.15V36.584c0-5.919,6.11-7.581,6.11-15.535,0-5.449-3.407-8.864-7.676-10.244a15.225,15.225,0,0,0-2.115-.148c-6.11,0-12.219,3.649-12.219,10.946,0,7.954,6.11,9.616,6.11,15.535v2.953Z" transform="translate(-288.612 -9.654)" fill="#ffeb87" fill-rule="evenodd"/>
  <path id="Path_48672" data-name="Path 48672" d="M405.038,210.034v3.79a1.652,1.652,0,0,1-1.647,1.647h-3.247a1.652,1.652,0,0,1-1.647-1.647v-3.79h6.541Z" transform="translate(-338.984 -178.953)" fill="#495586" fill-rule="evenodd"/>
  <path id="Path_48673" data-name="Path 48673" d="M400.876,215.471h-.732a1.652,1.652,0,0,1-1.647-1.647v-3.79h4.026v3.79A1.652,1.652,0,0,1,400.876,215.471Z" transform="translate(-338.984 -178.953)" fill="#5d689e" fill-rule="evenodd"/>
  <path id="Path_48674" data-name="Path 48674" d="M391.875,193.9a2.159,2.159,0,0,1-2.152,2.152H381.8a2.158,2.158,0,0,1-2.152-2.152v-2.109h12.229Z" transform="translate(-322.977 -163.458)" fill="#5d689e" fill-rule="evenodd"/>
  <path id="Path_48675" data-name="Path 48675" d="M387.289,196.049H381.8a2.158,2.158,0,0,1-2.152-2.152v-2.109h9.8v1.894A2.275,2.275,0,0,1,387.289,196.049Z" transform="translate(-322.977 -163.458)" fill="#7986bf" fill-rule="evenodd"/>
  <path id="Path_48676" data-name="Path 48676" d="M77.664,54.205a1.866,1.866,0,0,1-2.546.682,1.865,1.865,0,0,1,.938-3.481,1.875,1.875,0,0,1,1.8,1.382,1.856,1.856,0,0,1-.189,1.417ZM62.072,60.25a2.612,2.612,0,1,1-2.939-3.825,2.655,2.655,0,0,1,.684-.09,2.609,2.609,0,0,1,2.255,3.916ZM52.236,77.92H36.2c.022-1.564.029-4.124.014-4.39a6.124,6.124,0,0,0-.662-2.471,37.927,37.927,0,0,0,7.872-3.066,1.055,1.055,0,0,0-1-1.86,44.6,44.6,0,0,1-15.14,4.415c-1.339.115-2.641.162-3.15-.255s-.437-1.333-.313-2.318a3.827,3.827,0,0,0-.116-2.072c-.014-.028-.022-.054-.036-.08a1.388,1.388,0,0,1-.16-.764,2.432,2.432,0,0,1,.757-.757.882.882,0,0,0,.08-.06,1.054,1.054,0,0,0-.211-1.818,2.267,2.267,0,0,1-.8-.449c-.051-.089-.022-.383.218-.916a1.036,1.036,0,0,0,.065-.209,3.227,3.227,0,0,0-.109-2.214,3.716,3.716,0,0,0-2.648-1.825c-.859-.242-.909-.313-.931-.482-.065-.487.1-.77.6-1.519.073-.107.145-.219.218-.33,2.1-3.223,3.063-5.314,3.1-6.779A3.915,3.915,0,0,0,22.821,45a2.346,2.346,0,0,1-.6-2.261c.073-.419.2-.968.356-1.577h3.681v1.218a1.055,1.055,0,0,0,.851,1.036l2.19.432.778,1.863-1.244,1.857a1.051,1.051,0,0,0,.124,1.334l3.216,3.217a1.061,1.061,0,0,0,1.339.13l1.855-1.245,1.862.773.437,2.192a1.052,1.052,0,0,0,1.033.851h4.547a1.052,1.052,0,0,0,1.033-.851l.437-2.192,1.862-.773,1.855,1.245a1.061,1.061,0,0,0,1.339-.13l.859-.861,5.173,5.176-.087.146a4.72,4.72,0,0,0,1.026,5.951C54.39,67.216,52.323,72.3,52.236,77.92ZM24.226,33.811a5.085,5.085,0,0,0-.7-1.968c-.393-.722-.517-.946.044-1.794A15.485,15.485,0,0,1,26.6,27.226l3.23,3.227-.866.861a1.052,1.052,0,0,0-.124,1.335l1.244,1.857L29.3,36.369l-2.19.432a1.056,1.056,0,0,0-.851,1.036v1.218h-3.1c.728-2.624,1.164-4.3,1.062-5.243ZM36.317,23.341a25.853,25.853,0,0,0-7.887,2.731l2.888,2.889.859-.861a1.061,1.061,0,0,1,1.339-.131l1.855,1.246,1.862-.773.437-2.192A1.053,1.053,0,0,1,38.7,25.4h1.215v-2.5a31.937,31.937,0,0,0-3.6.449ZM38.842,8.249a2.135,2.135,0,1,1,2.132,2.136A2.139,2.139,0,0,1,38.842,8.249ZM42.756,29.4l-.371-1.9H39.569L39.2,29.4a1.065,1.065,0,0,1-.633.771l-2.91,1.206a1.05,1.05,0,0,1-.989-.1l-1.608-1.077-1.986,1.988L32.148,33.8a1.048,1.048,0,0,1,.095.992l-1.2,2.908a1.07,1.07,0,0,1-.771.631l-1.9.373v2.812l1.9.374a1.068,1.068,0,0,1,.771.631l1.2,2.907a1.05,1.05,0,0,1-.095.993l-1.077,1.6,1.986,1.989,1.608-1.077a1.052,1.052,0,0,1,.989-.1l2.91,1.206a1.065,1.065,0,0,1,.633.771l.371,1.895h2.816l.371-1.895a1.05,1.05,0,0,1,.633-.771l2.91-1.206a1.052,1.052,0,0,1,.989.1L48.9,50.017l1.986-1.989-1.077-1.6a1.071,1.071,0,0,1-.1-.993l1.208-2.907a1.068,1.068,0,0,1,.771-.631l1.9-.374V38.705l-1.9-.373a1.07,1.07,0,0,1-.771-.631L49.7,34.792a1.07,1.07,0,0,1,.1-.992l1.077-1.606L48.9,30.206l-1.608,1.077a1.05,1.05,0,0,1-.989.1l-2.91-1.206a1.049,1.049,0,0,1-.633-.771ZM9.355,42.6a2.577,2.577,0,1,1-1.339-4.977,2.665,2.665,0,0,1,.677-.089A2.577,2.577,0,0,1,9.355,42.6Zm9.458-22.833a2.577,2.577,0,1,1-.662-5.064,2.531,2.531,0,0,1,1.28.345,2.575,2.575,0,0,1-.618,4.72ZM79.89,52.242a3.92,3.92,0,0,0-1.855-2.415,3.975,3.975,0,0,0-5.428,1.456,3.924,3.924,0,0,0-.524,2.257l-8.272,2.889a4.74,4.74,0,0,0-.931-1.075,33.888,33.888,0,0,0,3.761-11.041,1.055,1.055,0,1,0-2.1-.246A31.832,31.832,0,0,1,61,54.376a4.689,4.689,0,0,0-2.416.008,4.754,4.754,0,0,0-1.288.558l-5.173-5.174.866-.861a1.051,1.051,0,0,0,.124-1.334l-1.244-1.857.778-1.863,2.19-.432a1.055,1.055,0,0,0,.851-1.036V37.837a1.056,1.056,0,0,0-.851-1.036l-2.19-.432-.778-1.862,1.244-1.857a1.051,1.051,0,0,0-.124-1.334L49.777,28.1a1.061,1.061,0,0,0-1.339-.131l-1.855,1.246-1.862-.773-.437-2.192a1.053,1.053,0,0,0-1.033-.852H42.036V22.815a29.087,29.087,0,0,1,9.946,1.623,1.056,1.056,0,1,0,.72-1.985A31.21,31.21,0,0,0,42.036,20.7V12.365a4.245,4.245,0,1,0-2.117,0v8.408a34.086,34.086,0,0,0-3.987.49,27.6,27.6,0,0,0-9.043,3.262L22.123,19.76c.022-.045.051-.091.08-.138a4.68,4.68,0,1,0-4.067,2.346,4.765,4.765,0,0,0,1.222-.162,4.838,4.838,0,0,0,1.273-.551l4.46,4.462A17.038,17.038,0,0,0,21.9,28.765a.411.411,0,0,0-.051.071,3.314,3.314,0,0,0-.175,4.014,3.288,3.288,0,0,1,.451,1.192,25.663,25.663,0,0,1-1.055,4.667c-.036.116-.065.231-.095.345H13.254l-.044-.157A4.685,4.685,0,1,0,4.16,41.325a4.687,4.687,0,0,0,9.094-.158h7.152c-.109.45-.2.862-.262,1.217a4.381,4.381,0,0,0,1,3.908,1.887,1.887,0,0,1,.582,1.354c-.022,1.008-.953,2.917-2.757,5.682-.065.11-.138.215-.2.316a3.971,3.971,0,0,0-.931,2.958c.211,1.609,1.557,1.989,2.452,2.241.764.215,1.142.356,1.324.722.029.054.08.164-.036.743a2.968,2.968,0,0,0-.116,2.643,2.39,2.39,0,0,0,.495.638,3.744,3.744,0,0,0-.4.653.707.707,0,0,0-.044.116,3.307,3.307,0,0,0,.277,2.426,4.324,4.324,0,0,1-.058.927c-.138,1.132-.378,3.026,1.069,4.214,1.15.945,2.881.883,4.7.725a.428.428,0,0,0,.044-.006c2.023-.268,3.951-.609,5.762-1.021a2.67,2.67,0,0,1,.8,2.06c.015.393,0,4.561-.036,5.235a1.049,1.049,0,0,0,1.055,1.114H53.306a1.057,1.057,0,0,0,1.055-1.088c-.175-5.582,1.884-10.706,4.256-15.43a4.654,4.654,0,0,0,1.186.154,4.761,4.761,0,0,0,1.229-.163,4.722,4.722,0,0,0,3.47-5.082l8.272-2.889a4.036,4.036,0,0,0,1.288,1.182,3.947,3.947,0,0,0,1.979.535,4.026,4.026,0,0,0,1.04-.137,3.97,3.97,0,0,0,2.808-4.872ZM40.974,34.163a5.948,5.948,0,1,0,5.951,5.948A5.955,5.955,0,0,0,40.974,34.163ZM32.92,40.111a8.058,8.058,0,1,0,8.054-8.06,8.068,8.068,0,0,0-8.054,8.06ZM63.564,20.693a4.915,4.915,0,0,1-1.9-2.14c-.757-1.614-.487-2.461-.349-2.543l.015,0a.765.765,0,0,1,.4.188c.735.558,1.506,2,1.834,4.5Zm6.424,0c.327-2.493,1.106-3.938,1.834-4.5a.792.792,0,0,1,.4-.188h.014c.138.083.415.93-.342,2.543a4.93,4.93,0,0,1-1.906,2.14ZM66.78,6.113c5.362,0,11.139,3.088,11.139,9.867,0,3.922-1.622,6.182-3.194,8.368-1.39,1.944-2.83,3.953-2.9,6.9H69.828V23.13a7.23,7.23,0,0,0,3.98-3.684c.946-2.033.939-3.855-.022-4.874A2.189,2.189,0,0,0,71.3,14.08c-1.535.611-3.165,2.88-3.521,7.419a6.228,6.228,0,0,1-2.008,0c-.356-4.539-1.986-6.808-3.529-7.419a2.178,2.178,0,0,0-2.474.492c-.968,1.02-.975,2.842-.029,4.874a7.267,7.267,0,0,0,3.987,3.684v8.116H61.738c-.08-2.944-1.513-4.954-2.91-6.9-1.564-2.186-3.187-4.446-3.187-8.368,0-6.779,5.777-9.867,11.139-9.867Zm.931,25.133h-1.87v-7.6a8.824,8.824,0,0,0,1.87,0ZM70.73,35.5h-7.9a1.09,1.09,0,0,1-1.091-1.09V33.358H71.822v1.048a1.091,1.091,0,0,1-1.091,1.09Zm-2.335,3.916H65.157a.594.594,0,0,1-.582-.586V37.608h4.409v1.218a.6.6,0,0,1-.589.586Zm-8.767-7.93v2.924a3.2,3.2,0,0,0,2.837,3.179v1.24a2.7,2.7,0,0,0,2.692,2.7h3.238a2.7,2.7,0,0,0,2.7-2.7v-1.24a3.207,3.207,0,0,0,2.837-3.179V31.482c0-2.4,1.164-4.021,2.51-5.9,1.681-2.343,3.587-5,3.587-9.6a11.107,11.107,0,0,0-4.213-9.019,15.282,15.282,0,0,0-18.08,0,11.122,11.122,0,0,0-4.205,9.019c0,4.6,1.9,7.256,3.58,9.6C58.464,27.461,59.628,29.086,59.628,31.482Z" transform="translate(-3.996 -4.001)" fill-rule="evenodd"/>
</svg>
