<svg id="surface1" xmlns="http://www.w3.org/2000/svg" width="86.746" height="86.746" viewBox="0 0 86.746 86.746">
  <path id="Path_1985" data-name="Path 1985" d="M249.771,370.168a1.271,1.271,0,0,0-1.271,1.271v12.88a1.271,1.271,0,0,0,2.541,0v-12.88A1.271,1.271,0,0,0,249.771,370.168Zm0,0" transform="translate(-206.398 -307.452)" fill="#50475e"/>
  <path id="Path_1986" data-name="Path 1986" d="M228.756,436.567a6.982,6.982,0,1,1-6.982-6.982A6.982,6.982,0,0,1,228.756,436.567Zm0,0" transform="translate(-178.401 -356.803)" fill="#34aa99"/>
  <path id="Path_1987" data-name="Path 1987" d="M243.009,429.586a6.975,6.975,0,0,0-2.65.522,6.983,6.983,0,0,1,0,12.92,6.982,6.982,0,1,0,2.65-13.442Zm0,0" transform="translate(-199.636 -356.803)" fill="#387f75"/>
  <path id="Path_1988" data-name="Path 1988" d="M168.821,122.054v26.817a1.016,1.016,0,0,1-.579.918l-4.656,2.22-16.669,7.943a1.017,1.017,0,0,1-.874,0L124.72,149.789a1.016,1.016,0,0,1-.579-.918V122.054a1,1,0,0,1,.171-.561,1.011,1.011,0,0,1,.408-.357l16.9-8.053,4.426-2.109a1.011,1.011,0,0,1,.874,0l21.325,10.162a1.011,1.011,0,0,1,.408.357h0A1.006,1.006,0,0,1,168.821,122.054Zm0,0" transform="translate(-103.108 -92.09)" fill="#ff2c5c"/>
  <path id="Path_1989" data-name="Path 1989" d="M254.333,121.494l-.065.03-5,2.383L227.3,113.083l4.426-2.109a1.011,1.011,0,0,1,.874,0l21.325,10.162A1.011,1.011,0,0,1,254.333,121.494Zm0,0" transform="translate(-188.79 -92.09)" fill="#e62753"/>
  <path id="Path_1990" data-name="Path 1990" d="M146.481,184.116v27.991a1.012,1.012,0,0,1-.437-.1L124.72,201.846a1.016,1.016,0,0,1-.579-.918V174.111a1,1,0,0,1,.171-.561Zm0,0" transform="translate(-103.108 -144.147)" fill="#4fb1f5"/>
  <path id="Path_1991" data-name="Path 1991" d="M278.34,174.111v26.817a1.016,1.016,0,0,1-.579.918l-4.656,2.22-16.669,7.942a1.012,1.012,0,0,1-.437.1V184.116l17.087-8.142,5.018-2.392.065-.03h0A1.006,1.006,0,0,1,278.34,174.111Zm0,0" transform="translate(-212.627 -144.147)" fill="#ffd659"/>
  <path id="Path_1992" data-name="Path 1992" d="M249.771,60.945a1.271,1.271,0,0,0-1.271,1.271V78.2a1.271,1.271,0,0,0,2.541,0V62.216A1.271,1.271,0,0,0,249.771,60.945Zm0,0" transform="translate(-206.398 -50.62)" fill="#50475e"/>
  <path id="Path_1993" data-name="Path 1993" d="M68.138,248.5H53.321a1.271,1.271,0,1,0,0,2.541H68.138a1.271,1.271,0,0,0,0-2.541Zm0,0" transform="translate(-43.232 -206.398)" fill="#50475e"/>
  <path id="Path_1994" data-name="Path 1994" d="M371.676,248.5h-15.8a1.271,1.271,0,0,0,0,2.541h15.8a1.271,1.271,0,0,0,0-2.541Zm0,0" transform="translate(-294.529 -206.398)" fill="#50475e"/>
  <path id="Path_1995" data-name="Path 1995" d="M228.756,6.982A6.982,6.982,0,1,1,221.775,0,6.982,6.982,0,0,1,228.756,6.982Zm0,0" transform="translate(-178.401)" fill="#ff2c5c"/>
  <path id="Path_1996" data-name="Path 1996" d="M243.165,0a6.958,6.958,0,0,0-2.618.51,6.981,6.981,0,0,1,0,12.944A6.982,6.982,0,1,0,243.165,0Zm0,0" transform="translate(-199.792)" fill="#e62753"/>
  <path id="Path_1997" data-name="Path 1997" d="M443.549,221.775a6.982,6.982,0,1,1-6.982-6.982A6.982,6.982,0,0,1,443.549,221.775Zm0,0" transform="translate(-356.803 -178.401)" fill="#ffd659"/>
  <path id="Path_1998" data-name="Path 1998" d="M457.958,214.793a6.958,6.958,0,0,0-2.618.51,6.981,6.981,0,0,1,0,12.944,6.982,6.982,0,1,0,2.618-13.453Zm0,0" transform="translate(-378.193 -178.401)" fill="#ffbd54"/>
  <path id="Path_1999" data-name="Path 1999" d="M13.963,221.775a6.982,6.982,0,1,1-6.982-6.982A6.982,6.982,0,0,1,13.963,221.775Zm0,0" transform="translate(0 -178.401)" fill="#4fb1f5"/>
  <path id="Path_2000" data-name="Path 2000" d="M28.372,214.793a6.958,6.958,0,0,0-2.618.51,6.981,6.981,0,0,1,0,12.944,6.982,6.982,0,1,0,2.618-13.453Zm0,0" transform="translate(-21.391 -178.401)" fill="#46a4e6"/>
</svg>
