<svg xmlns="http://www.w3.org/2000/svg" width="60" height="auto" viewBox="0 0 54.873 86.746">
  <g id="touch" transform="translate(-94.063)">
    <g id="Group_970" data-name="Group 970" transform="translate(95.421 1.358)">
      <path id="Path_1972" data-name="Path 1972" d="M123.812,8.017a21.732,21.732,0,1,0,21.732,21.732A21.732,21.732,0,0,0,123.812,8.017Zm0,37.668a15.937,15.937,0,1,1,15.937-15.937A15.937,15.937,0,0,1,123.812,45.685Z" transform="translate(-102.08 -8.017)" fill="#eec866" />
      <path id="Path_1973" data-name="Path 1973" d="M173.972,68.409a11.5,11.5,0,1,0,11.5,11.5A11.5,11.5,0,0,0,173.972,68.409Zm0,20.283a8.783,8.783,0,1,1,8.783-8.783A8.783,8.783,0,0,1,173.972,88.692Z" transform="translate(-152.24 -58.177)" fill="#eec866" />
    </g>
    <path id="Path_1974" data-name="Path 1974" d="M195.628,139.583a4.346,4.346,0,0,0-4.58,4.34v-1.2a4.512,4.512,0,0,0-4.112-4.586,4.346,4.346,0,0,0-4.58,4.34v-1.2a4.512,4.512,0,0,0-4.112-4.586,4.347,4.347,0,0,0-4.58,4.341V114.941a4.346,4.346,0,0,0-4.58-4.34,4.512,4.512,0,0,0-4.112,4.586v22.941l-5.981,5.981A7.244,7.244,0,0,0,157,150.587l2.386,12.526a17.386,17.386,0,0,0,17.078,14.132h5.9a17.385,17.385,0,0,0,17.385-17.385V144.169A4.513,4.513,0,0,0,195.628,139.583Z" transform="translate(-52.163 -91.857)" fill="#038175" />
    <g id="Group_971" data-name="Group 971" transform="translate(104.703 18.743)">
      <path id="Path_1975" data-name="Path 1975" d="M362.96,288.262v-6.5a4.335,4.335,0,0,0-4.346,4.328v2.173a2.173,2.173,0,1,0,4.346,0Z" transform="translate(-324.433 -252.766)" fill="#f6c652" />
      <path id="Path_1976" data-name="Path 1976" d="M309.481,281.884a2.173,2.173,0,0,0,2.173-2.173v-6.5a4.335,4.335,0,0,0-4.346,4.328v2.173A2.173,2.173,0,0,0,309.481,281.884Z" transform="translate(-281.819 -245.663)" fill="#f6c652" />
      <path id="Path_1977" data-name="Path 1977" d="M260.346,271.159v-6.5A4.335,4.335,0,0,0,256,268.986v2.173a2.173,2.173,0,1,0,4.346,0Z" transform="translate(-239.204 -238.561)" fill="#f6c652" />
      <path id="Path_1978" data-name="Path 1978" d="M164.585,163.145,162.2,150.619a7.243,7.243,0,0,1,1.994-6.478l.776-.776v5.654a2.173,2.173,0,1,0,4.346,0V110.639c-.079,0-.154-.016-.234-.012a4.512,4.512,0,0,0-4.112,4.586v22.941l-5.981,5.981a7.245,7.245,0,0,0-1.994,6.478l2.386,12.526a17.385,17.385,0,0,0,17.078,14.132h5.068A17.382,17.382,0,0,1,164.585,163.145Z" transform="translate(-156.866 -110.626)" fill="#f6c652" />
    </g>
    <path id="Path_1979" data-name="Path 1979" d="M189.036,131.568a5.655,5.655,0,0,0-4.1,1.436,5.635,5.635,0,0,0-8.693-1.449,5.632,5.632,0,0,0-7.887-2.051V108.282a5.73,5.73,0,0,0-1.778-4.138,5.658,5.658,0,0,0-4.231-1.558,5.833,5.833,0,0,0-5.4,5.942v22.378l-5.584,5.584A8.6,8.6,0,0,0,149,144.182l2.386,12.526A18.763,18.763,0,0,0,169.8,171.945h5.9A18.765,18.765,0,0,0,194.436,153.2V137.51A5.834,5.834,0,0,0,189.036,131.568Zm2.683,21.633a16.045,16.045,0,0,1-16.027,16.027h-5.9A16.044,16.044,0,0,1,154.052,156.2l-2.386-12.526a5.88,5.88,0,0,1,1.62-5.263l3.663-3.663v9.759a1.358,1.358,0,1,0,2.717,0V108.528a3.16,3.16,0,0,1,2.826-3.23,2.988,2.988,0,0,1,3.151,2.984v28.982a1.358,1.358,0,0,0,2.717,0v-2.9a2.988,2.988,0,0,1,3.151-2.984,3.16,3.16,0,0,1,2.826,3.23v4.1a1.358,1.358,0,0,0,2.717,0v-2.9a2.988,2.988,0,0,1,3.151-2.984,3.16,3.16,0,0,1,2.826,3.23v4.1a1.358,1.358,0,0,0,2.717,0v-2.9a2.988,2.988,0,0,1,3.151-2.984,3.16,3.16,0,0,1,2.826,3.23V153.2h0Z" transform="translate(-45.5 -85.199)" />
    <path id="Path_1980" data-name="Path 1980" d="M173.972,71.126a8.793,8.793,0,0,1,8.783,8.783,1.358,1.358,0,0,0,2.717,0,11.5,11.5,0,0,0-23,0,1.358,1.358,0,0,0,2.717,0A8.793,8.793,0,0,1,173.972,71.126Z" transform="translate(-56.819 -56.819)" />
    <path id="Path_1981" data-name="Path 1981" d="M283.547,193a1.353,1.353,0,0,0,.864-.311,17.437,17.437,0,0,0,2.334-2.334,1.358,1.358,0,0,0-2.094-1.73,14.719,14.719,0,0,1-1.97,1.969,1.358,1.358,0,0,0,.866,2.406Z" transform="translate(-156.252 -156.254)" />
    <path id="Path_1982" data-name="Path 1982" d="M145.562,36.922a14.591,14.591,0,0,1,14.03,18.556,1.358,1.358,0,1,0,2.614.74,17.295,17.295,0,1,0-33.289-.007,1.358,1.358,0,0,0,2.614-.738,14.592,14.592,0,0,1,14.032-18.55Z" transform="translate(-28.409 -28.411)" />
    <path id="Path_1983" data-name="Path 1983" d="M152.4,192.672a1.358,1.358,0,0,0,1.73-2.095,14.718,14.718,0,0,1-1.971-1.972,1.358,1.358,0,1,0-2.095,1.729A17.422,17.422,0,0,0,152.4,192.672Z" transform="translate(-46.258 -156.241)" />
    <path id="Path_1984" data-name="Path 1984" d="M107.01,43.674a1.358,1.358,0,0,0,.636-2.559,20.378,20.378,0,1,1,23.089-2.839,1.358,1.358,0,0,0,1.812,2.024,23.087,23.087,0,1,0-26.17,3.216A1.352,1.352,0,0,0,107.01,43.674Z" />
  </g>
</svg>