<svg xmlns="http://www.w3.org/2000/svg" xmlns:xlink="http://www.w3.org/1999/xlink" width="60" height="60" viewBox="0 0 60 60">
  <defs>
    <clipPath id="clip-Ease_of_access">
      <rect width="60" height="60"/>
    </clipPath>
  </defs>
  <g id="Ease_of_access" data-name="Ease of access" clip-path="url(#clip-Ease_of_access)">
    <g id="touch" transform="translate(-82.063 1)">
      <g id="Group_970" data-name="Group 970" transform="translate(94.963 0.9)">
        <path id="Path_1972" data-name="Path 1972" d="M116.484,8.017a14.4,14.4,0,1,0,14.4,14.4A14.4,14.4,0,0,0,116.484,8.017Zm0,24.968a10.563,10.563,0,1,1,10.563-10.563A10.563,10.563,0,0,1,116.484,32.985Z" transform="translate(-102.08 -8.017)" fill="#eec866"/>
        <path id="Path_1973" data-name="Path 1973" d="M170.094,68.409a7.622,7.622,0,1,0,7.622,7.622A7.622,7.622,0,0,0,170.094,68.409Zm0,13.444a5.822,5.822,0,1,1,5.822-5.822A5.822,5.822,0,0,1,170.094,81.853Z" transform="translate(-155.69 -61.627)" fill="#eec866"/>
      </g>
      <path id="Path_1974" data-name="Path 1974" d="M182.559,129.809a2.881,2.881,0,0,0-3.036,2.877v-.8a2.991,2.991,0,0,0-2.726-3.04,2.881,2.881,0,0,0-3.036,2.877v-.8a2.991,2.991,0,0,0-2.726-3.04A2.881,2.881,0,0,0,168,130.765V113.476a2.881,2.881,0,0,0-3.036-2.877,2.991,2.991,0,0,0-2.726,3.04v15.206l-3.965,3.965a4.8,4.8,0,0,0-1.321,4.294l1.581,8.3a11.524,11.524,0,0,0,11.32,9.367h3.908a11.524,11.524,0,0,0,11.524-11.524v-10.4A2.991,2.991,0,0,0,182.559,129.809Z" transform="translate(-55.751 -98.175)" fill="#038175"/>
      <g id="Group_971" data-name="Group 971" transform="translate(101.116 12.423)">
        <path id="Path_1975" data-name="Path 1975" d="M361.495,286.069V281.76a2.873,2.873,0,0,0-2.881,2.869v1.44a1.44,1.44,0,1,0,2.881,0Z" transform="translate(-335.958 -262.542)" fill="#f6c652"/>
        <path id="Path_1976" data-name="Path 1976" d="M308.748,278.959a1.44,1.44,0,0,0,1.44-1.44v-4.309a2.873,2.873,0,0,0-2.881,2.869v1.44A1.44,1.44,0,0,0,308.748,278.959Z" transform="translate(-290.413 -254.951)" fill="#f6c652"/>
        <path id="Path_1977" data-name="Path 1977" d="M258.881,268.967v-4.309A2.873,2.873,0,0,0,256,267.527v1.44a1.44,1.44,0,1,0,2.881,0Z" transform="translate(-244.867 -247.36)" fill="#f6c652"/>
        <path id="Path_1978" data-name="Path 1978" d="M161.983,145.437l-1.581-8.3a4.8,4.8,0,0,1,1.322-4.294l.514-.514v3.748a1.44,1.44,0,0,0,2.881,0v-25.44c-.052,0-.1-.011-.155-.008a2.991,2.991,0,0,0-2.726,3.04v15.206l-3.965,3.965a4.8,4.8,0,0,0-1.322,4.294l1.581,8.3a11.524,11.524,0,0,0,11.32,9.367h3.359A11.521,11.521,0,0,1,161.983,145.437Z" transform="translate(-156.866 -110.626)" fill="#f6c652"/>
      </g>
      <path id="Path_1979" data-name="Path 1979" d="M175.485,121.793a3.748,3.748,0,0,0-2.717.952,3.735,3.735,0,0,0-5.762-.96,3.733,3.733,0,0,0-5.228-1.359V106.359a3.8,3.8,0,0,0-1.179-2.743,3.751,3.751,0,0,0-2.8-1.033,3.867,3.867,0,0,0-3.579,3.939v14.833l-3.7,3.7a5.7,5.7,0,0,0-1.569,5.1l1.581,8.3a12.437,12.437,0,0,0,12.2,10.1h3.908a12.438,12.438,0,0,0,12.424-12.424v-10.4A3.867,3.867,0,0,0,175.485,121.793Zm1.779,14.339a10.635,10.635,0,0,1-10.623,10.623h-3.908A10.634,10.634,0,0,1,152.3,138.12l-1.581-8.3a3.9,3.9,0,0,1,1.074-3.488l2.428-2.428v6.469a.9.9,0,1,0,1.8,0V106.522a2.1,2.1,0,0,1,1.873-2.141,1.981,1.981,0,0,1,2.088,1.978v19.21a.9.9,0,0,0,1.8,0v-1.921a1.981,1.981,0,0,1,2.088-1.978,2.1,2.1,0,0,1,1.873,2.141v2.718a.9.9,0,0,0,1.8,0v-1.921a1.981,1.981,0,0,1,2.088-1.978,2.1,2.1,0,0,1,1.873,2.141v2.718a.9.9,0,0,0,1.8,0v-1.921a1.981,1.981,0,0,1,2.088-1.978,2.1,2.1,0,0,1,1.873,2.141v10.4h0Z" transform="translate(-48.63 -91.058)"/>
      <path id="Path_1980" data-name="Path 1980" d="M170.094,70.21a5.828,5.828,0,0,1,5.822,5.822.9.9,0,1,0,1.8,0,7.622,7.622,0,0,0-15.245,0,.9.9,0,1,0,1.8,0A5.828,5.828,0,0,1,170.094,70.21Z" transform="translate(-60.727 -60.727)"/>
      <path id="Path_1981" data-name="Path 1981" d="M283.089,191.355a.9.9,0,0,0,.573-.206,11.559,11.559,0,0,0,1.547-1.547.9.9,0,1,0-1.388-1.147,9.759,9.759,0,0,1-1.305,1.305.9.9,0,0,0,.574,1.594Z" transform="translate(-166.998 -167.001)"/>
      <path id="Path_1982" data-name="Path 1982" d="M139.731,36.006a9.672,9.672,0,0,1,9.3,12.3.9.9,0,1,0,1.732.49,11.463,11.463,0,1,0-22.065,0,.9.9,0,1,0,1.733-.489,9.672,9.672,0,0,1,9.3-12.3Z" transform="translate(-30.363 -30.365)"/>
      <path id="Path_1983" data-name="Path 1983" d="M151.512,191.134a.9.9,0,0,0,1.147-1.388,9.756,9.756,0,0,1-1.307-1.307.9.9,0,0,0-1.389,1.146A11.544,11.544,0,0,0,151.512,191.134Z" transform="translate(-49.439 -166.987)"/>
      <path id="Path_1984" data-name="Path 1984" d="M102.645,28.948a.9.9,0,0,0,.422-1.7,13.507,13.507,0,1,1,15.3-1.881.9.9,0,0,0,1.2,1.342,15.3,15.3,0,1,0-17.346,2.132A.9.9,0,0,0,102.645,28.948Z"/>
    </g>
  </g>
</svg>
