<svg id="email" xmlns="http://www.w3.org/2000/svg" width="17.589" height="13.174" viewBox="0 0 17.589 13.174">
  <path id="Path_48613" data-name="Path 48613" d="M10.264,176.29a2.646,2.646,0,0,1-2.94,0L.117,171.485q-.06-.04-.117-.083v7.874A1.619,1.619,0,0,0,1.619,180.9H15.97a1.619,1.619,0,0,0,1.619-1.619V171.4c-.038.029-.077.057-.117.083Z" transform="translate(0 -167.721)" fill="#fff"/>
  <path id="Path_48614" data-name="Path 48614" d="M.689,67.172,7.9,71.977a1.615,1.615,0,0,0,1.8,0L16.9,67.172a1.543,1.543,0,0,0,.689-1.287,1.62,1.62,0,0,0-1.619-1.619H1.619A1.621,1.621,0,0,0,0,65.886a1.543,1.543,0,0,0,.689,1.287Z" transform="translate(0 -64.266)" fill="#fff"/>
</svg>
