<svg xmlns="http://www.w3.org/2000/svg" width="101.669" height="98.07" viewBox="0 0 101.669 98.07">
  <g id="student" transform="translate(0 -0.113)">
    <path id="Path_2027" data-name="Path 2027" d="M404.026,171.4a1.15,1.15,0,0,1-1.048-.674l-5.188-11.41a1.15,1.15,0,0,1,2.094-.952l5.188,11.41a1.15,1.15,0,0,1-1.046,1.626Z" transform="translate(-318.372 -126.146)" fill="#3c5a73"/>
    <path id="Path_2028" data-name="Path 2028" d="M296.085,278.974,291,256.272H273.287a4.7,4.7,0,1,1,0-9.4H294.76a4.7,4.7,0,0,1,4.587,3.673l5.912,26.375a4.7,4.7,0,0,1-9.174,2.057Z" transform="translate(-215.019 -197.544)" fill="#414b82"/>
    <path id="Path_2029" data-name="Path 2029" d="M233.366,320.384a1.917,1.917,0,0,1-1.406-2.318l5.521-22.529a1.917,1.917,0,0,1,3.724.912l-5.521,22.529a1.917,1.917,0,0,1-2.318,1.405Z" transform="translate(-185.653 -235.336)" fill="#6c9baa"/>
    <path id="Path_2030" data-name="Path 2030" d="M342.238,318.976l-5.521-22.529a1.917,1.917,0,0,1,3.724-.912l5.52,22.529a1.917,1.917,0,0,1-3.724.912Z" transform="translate(-269.518 -235.334)" fill="#6c9baa"/>
    <path id="Path_2031" data-name="Path 2031" d="M262.053,113.318h-.439a9.966,9.966,0,0,0-9.966,9.966V139.9a10.2,10.2,0,0,0,10.2,10.2l11.533-10.148V124.645a11.327,11.327,0,0,0-11.327-11.327Z" transform="translate(-201.459 -90.628)" fill="#e64937"/>
    <circle id="Ellipse_3" data-name="Ellipse 3" cx="8.701" cy="8.701" r="8.701" transform="matrix(0.755, -0.655, 0.655, 0.755, 54.533, 11.511)" fill="#ffb69e"/>
    <path id="Path_2032" data-name="Path 2032" d="M348.941,184.453l-13.128-.967a3.918,3.918,0,0,1-2.529-1.185l-3.189-3.3,1-4.992,4.824-.259,1.964,2.033,11.637.858a3.917,3.917,0,1,1-.576,7.814Z" transform="translate(-264.261 -139.006)" fill="#ffb69e"/>
    <path id="Path_2033" data-name="Path 2033" d="M301,136.614l-7.783-8.056A3.917,3.917,0,0,0,287.586,134l7.6,7.863Z" transform="translate(-229.349 -101.872)" fill="#d13d2c"/>
    <path id="Path_2034" data-name="Path 2034" d="M234.433,148.031H209.459a3.354,3.354,0,0,1-3.313-2.83l-5.737-36.225a3.354,3.354,0,1,1,6.626-1.049l5.29,33.4h22.109a3.354,3.354,0,1,1,0,6.709Z" transform="translate(-160.406 -84.046)" fill="#965028"/>
    <path id="Path_2035" data-name="Path 2035" d="M386.112,227.853H362.848a3.354,3.354,0,0,1,0-6.709h23.263a3.354,3.354,0,0,1,0,6.709Z" transform="translate(-287.796 -176.949)" fill="#965028"/>
    <path id="Path_2036" data-name="Path 2036" d="M339.953,246.619a1.438,1.438,0,0,1-.209-2.022l10.823-13.31A1.438,1.438,0,0,1,352.8,233.1l-10.823,13.31A1.438,1.438,0,0,1,339.953,246.619Z" transform="translate(-271.727 -184.643)" fill="#6c9baa"/>
    <path id="Path_2037" data-name="Path 2037" d="M203.659,236.977a1.15,1.15,0,0,1-1.048-.674l-5.188-11.41a1.15,1.15,0,0,1,2.094-.952l5.188,11.41a1.15,1.15,0,0,1-1.046,1.626Z" transform="translate(-157.966 -178.648)" fill="#3c5a73"/>
    <path id="Path_2038" data-name="Path 2038" d="M95.718,344.555l-5.089-22.7H72.92a4.7,4.7,0,1,1,0-9.4H94.393a4.7,4.7,0,0,1,4.587,3.673l5.912,26.375a4.7,4.7,0,1,1-9.174,2.057Z" transform="translate(-54.613 -250.046)" fill="#414b82"/>
    <path id="Path_2039" data-name="Path 2039" d="M33,385.965a1.917,1.917,0,0,1-1.406-2.318l5.521-22.529a1.917,1.917,0,0,1,3.724.912l-5.52,22.529A1.917,1.917,0,0,1,33,385.965Z" transform="translate(-25.248 -287.837)" fill="#6c9baa"/>
    <path id="Path_2040" data-name="Path 2040" d="M141.871,384.557l-5.52-22.529a1.917,1.917,0,0,1,3.724-.912l5.52,22.529a1.917,1.917,0,0,1-3.724.912Z" transform="translate(-109.112 -287.836)" fill="#6c9baa"/>
    <path id="Path_2041" data-name="Path 2041" d="M61.686,178.9h-.439a9.966,9.966,0,0,0-9.966,9.966v16.619a10.2,10.2,0,0,0,10.2,10.2l11.533-10.148V190.226A11.327,11.327,0,0,0,61.686,178.9Z" transform="translate(-41.053 -143.129)" fill="#64afff"/>
    <circle id="Ellipse_4" data-name="Ellipse 4" cx="8.701" cy="8.701" r="8.701" transform="matrix(0.755, -0.655, 0.655, 0.755, 14.584, 24.574)" fill="#ffb69e"/>
    <path id="Path_2042" data-name="Path 2042" d="M148.574,250.034l-13.128-.967a3.918,3.918,0,0,1-2.529-1.185l-3.189-3.3,1-4.992,4.824-.259,1.964,2.033,11.637.858a3.917,3.917,0,1,1-.576,7.814Z" transform="translate(-103.855 -191.508)" fill="#ffb69e"/>
    <path id="Path_2043" data-name="Path 2043" d="M100.637,202.2l-7.783-8.056a3.917,3.917,0,0,0-5.635,5.444l7.6,7.863Z" transform="translate(-68.943 -154.373)" fill="#4699f2"/>
    <path id="Path_2044" data-name="Path 2044" d="M34.066,213.612H9.093a3.354,3.354,0,0,1-3.313-2.83L.042,174.557a3.354,3.354,0,1,1,6.626-1.049l5.29,33.4H34.067a3.354,3.354,0,1,1,0,6.709Z" transform="translate(0 -136.548)" fill="#a56941"/>
    <path id="Path_2045" data-name="Path 2045" d="M185.745,293.434H162.482a3.354,3.354,0,1,1,0-6.709h23.263a3.354,3.354,0,1,1,0,6.709Z" transform="translate(-127.391 -229.45)" fill="#a56941"/>
    <path id="Path_2046" data-name="Path 2046" d="M139.585,312.2a1.438,1.438,0,0,1-.209-2.022l10.823-13.31a1.438,1.438,0,0,1,2.231,1.814l-10.823,13.31A1.438,1.438,0,0,1,139.585,312.2Z" transform="translate(-111.321 -237.145)" fill="#6c9baa"/>
  </g>
</svg>
