<svg xmlns="http://www.w3.org/2000/svg" xmlns:xlink="http://www.w3.org/1999/xlink" width="60" height="60" viewBox="0 0 60 60">
  <defs>
    <clipPath id="clip-Faster_process">
      <rect width="60" height="60"/>
    </clipPath>
  </defs>
  <g id="Faster_process" data-name="Faster process" clip-path="url(#clip-Faster_process)">
    <g id="innovation" transform="translate(-23 -85.991)">
      <path id="Path_1952" data-name="Path 1952" d="M124.012,118.009a21.906,21.906,0,0,1-2.946,11.008H82.926a22.018,22.018,0,1,1,41.087-11.008Z" transform="translate(-48.975 0)" fill="#038175"/>
      <path id="Path_1953" data-name="Path 1953" d="M153.98,153.013a16.944,16.944,0,0,1-4.04,11.008H124a17,17,0,0,1,.255-22.31,17.562,17.562,0,0,1,1.415-1.415,16.922,16.922,0,0,1,10.3-4.266q.5-.03,1-.03t1,.03a16.942,16.942,0,0,1,10.3,4.266,17.565,17.565,0,0,1,1.415,1.415A16.944,16.944,0,0,1,153.98,153.013Z" transform="translate(-83.946 -35.004)" fill="#d1e4ff"/>
      <path id="Path_1954" data-name="Path 1954" d="M238.239,203.754l8.074-6.286-2.1,9.768Z" transform="translate(-187.439 -88.783)" fill="#ef5e3b"/>
      <circle id="Ellipse_1" data-name="Ellipse 1" cx="3.945" cy="3.945" r="3.945" transform="translate(49.041 114.171)" fill="#f5714f"/>
      <path id="Path_1955" data-name="Path 1955" d="M24,296H82.043v15.011H24Z" transform="translate(0 -174.989)" fill="#ffc431"/>
      <circle id="Ellipse_2" data-name="Ellipse 2" cx="2.916" cy="2.916" r="2.916" transform="translate(30.174 125.148)" fill="#8be0e8"/>
      <g id="Group_969" data-name="Group 969" transform="translate(27.295 124.013)">
        <path id="Path_1956" data-name="Path 1956" d="M56.054,320a4,4,0,0,0-3.447,6.035L50.343,328.3l1.415,1.415,2.264-2.264A4,4,0,1,0,56.054,320Zm0,6a2,2,0,1,1,2-2A2,2,0,0,1,56.054,326Z" transform="translate(-50.343 -320)" fill="#ffa100"/>
        <path id="Path_1957" data-name="Path 1957" d="M152,376h2v2h-2Z" transform="translate(-139.283 -368.995)" fill="#ffa100"/>
        <path id="Path_1958" data-name="Path 1958" d="M184,376h2v2h-2Z" transform="translate(-167.28 -368.995)" fill="#ffa100"/>
        <path id="Path_1959" data-name="Path 1959" d="M216,376h2v2h-2Z" transform="translate(-195.278 -368.995)" fill="#ffa100"/>
        <path id="Path_1960" data-name="Path 1960" d="M248,376h2v2h-2Z" transform="translate(-223.275 -368.995)" fill="#ffa100"/>
        <path id="Path_1961" data-name="Path 1961" d="M280,376h2v2h-2Z" transform="translate(-251.272 -368.995)" fill="#ffa100"/>
        <path id="Path_1962" data-name="Path 1962" d="M312,320h2v9.007h-2Z" transform="translate(-279.269 -320)" fill="#ffa100"/>
      </g>
      <path id="Path_1963" data-name="Path 1963" d="M385.35,110.525a25.017,25.017,0,0,0-6.276-7.214l1.233-1.577a27.009,27.009,0,0,1,6.776,7.788Z" transform="translate(-310.656 -5.025)" fill="#d1e4ff"/>
      <path id="Path_1964" data-name="Path 1964" d="M438.078,183.383c-.24-.65-.51-1.3-.8-1.924l1.813-.848c.317.678.609,1.377.868,2.079Z" transform="translate(-361.578 -74.035)" fill="#d1e4ff"/>
      <path id="Path_1965" data-name="Path 1965" d="M250,136.03V139h-2V136.03q.5-.03,1-.03T250,136.03Z" transform="translate(-195.979 -35.004)" fill="#bed3f7"/>
      <path id="Path_1966" data-name="Path 1966" d="M294.458,144.237l-1.14,2.751-1.849-.767,1.14-2.751A17,17,0,0,1,294.458,144.237Z" transform="translate(-234.011 -41.54)" fill="#bed3f7"/>
      <path id="Path_1967" data-name="Path 1967" d="M333.058,171.755l-2.1,2.1-1.415-1.415,2.1-2.1A17.557,17.557,0,0,1,333.058,171.755Z" transform="translate(-267.319 -65.048)" fill="#bed3f7"/>
      <path id="Path_1968" data-name="Path 1968" d="M359.927,214.489l-2.751,1.14-.767-1.849,2.751-1.14A17.013,17.013,0,0,1,359.927,214.489Z" transform="translate(-290.828 -102.057)" fill="#bed3f7"/>
      <path id="Path_1969" data-name="Path 1969" d="M130.988,213.78l-.767,1.849-2.751-1.14a17.006,17.006,0,0,1,.767-1.849Z" transform="translate(-90.527 -102.057)" fill="#bed3f7"/>
      <path id="Path_1970" data-name="Path 1970" d="M157.858,172.443l-1.415,1.415-2.1-2.1a17.57,17.57,0,0,1,1.415-1.415Z" transform="translate(-114.036 -65.048)" fill="#bed3f7"/>
      <path id="Path_1971" data-name="Path 1971" d="M199.629,146.221l-1.849.767-1.14-2.751a17.008,17.008,0,0,1,1.849-.767Z" transform="translate(-151.044 -41.54)" fill="#bed3f7"/>
    </g>
  </g>
</svg>
