<svg xmlns="http://www.w3.org/2000/svg" width="125.778" height="86.746" viewBox="0 0 125.778 86.746">
  <g id="innovation" transform="translate(-24 -95.991)">
    <path id="Path_1952" data-name="Path 1952" d="M175.4,143.7a47.469,47.469,0,0,1-6.384,23.855H86.367A47.712,47.712,0,1,1,175.4,143.7Z" transform="translate(-40.803)" fill="#038175"/>
    <path id="Path_1953" data-name="Path 1953" d="M193.694,172.866a36.717,36.717,0,0,1-8.756,23.855H128.718a36.83,36.83,0,0,1,.553-48.346,38.064,38.064,0,0,1,3.066-3.066,36.669,36.669,0,0,1,22.323-9.244q1.077-.065,2.169-.065t2.169.065a36.714,36.714,0,0,1,22.323,9.244,38.064,38.064,0,0,1,3.066,3.066A36.717,36.717,0,0,1,193.694,172.866Z" transform="translate(-69.939 -29.163)" fill="#d1e4ff"/>
    <path id="Path_1954" data-name="Path 1954" d="M238.239,211.089l17.5-13.621-4.551,21.167Z" transform="translate(-156.164 -73.969)" fill="#ef5e3b"/>
    <circle id="Ellipse_1" data-name="Ellipse 1" cx="8.548" cy="8.548" r="8.548" transform="translate(78.263 135.387)" fill="#f5714f"/>
    <path id="Path_1955" data-name="Path 1955" d="M24,296H149.778v32.529H24Z" transform="translate(0 -145.792)" fill="#ffc431"/>
    <circle id="Ellipse_2" data-name="Ellipse 2" cx="6.318" cy="6.318" r="6.318" transform="translate(37.38 159.174)" fill="#8be0e8"/>
    <g id="Group_969" data-name="Group 969" transform="translate(31.141 156.714)">
      <path id="Path_1956" data-name="Path 1956" d="M62.719,320a8.668,8.668,0,0,0-7.47,13.077l-4.907,4.907,3.067,3.067,4.907-4.907A8.673,8.673,0,1,0,62.719,320Zm0,13.012a4.337,4.337,0,1,1,4.337-4.337,4.337,4.337,0,0,1-4.337,4.337Z" transform="translate(-50.343 -320)" fill="#ffa100"/>
      <path id="Path_1957" data-name="Path 1957" d="M152,376h4.337v4.337H152Z" transform="translate(-124.443 -360.82)" fill="#ffa100"/>
      <path id="Path_1958" data-name="Path 1958" d="M184,376h4.337v4.337H184Z" transform="translate(-147.769 -360.82)" fill="#ffa100"/>
      <path id="Path_1959" data-name="Path 1959" d="M216,376h4.337v4.337H216Z" transform="translate(-171.095 -360.82)" fill="#ffa100"/>
      <path id="Path_1960" data-name="Path 1960" d="M248,376h4.337v4.337H248Z" transform="translate(-194.42 -360.82)" fill="#ffa100"/>
      <path id="Path_1961" data-name="Path 1961" d="M280,376h4.337v4.337H280Z" transform="translate(-217.746 -360.82)" fill="#ffa100"/>
      <path id="Path_1962" data-name="Path 1962" d="M312,320h4.337v19.517H312Z" transform="translate(-241.072 -320)" fill="#ffa100"/>
    </g>
    <path id="Path_1963" data-name="Path 1963" d="M392.674,120.783a54.211,54.211,0,0,0-13.6-15.632l2.671-3.417a58.529,58.529,0,0,1,14.684,16.877Z" transform="translate(-258.822 -4.186)" fill="#d1e4ff"/>
    <path id="Path_1964" data-name="Path 1964" d="M439.016,186.618c-.519-1.408-1.1-2.811-1.74-4.169l3.929-1.837c.686,1.468,1.319,2.984,1.881,4.505Z" transform="translate(-301.247 -61.682)" fill="#d1e4ff"/>
    <path id="Path_1965" data-name="Path 1965" d="M252.337,136.065v6.441H248v-6.441q1.077-.065,2.169-.065T252.337,136.065Z" transform="translate(-163.279 -29.163)" fill="#bed3f7"/>
    <path id="Path_1966" data-name="Path 1966" d="M297.946,145.132l-2.469,5.961-4.006-1.662,2.47-5.961A36.843,36.843,0,0,1,297.946,145.132Z" transform="translate(-194.966 -34.609)" fill="#bed3f7"/>
    <path id="Path_1967" data-name="Path 1967" d="M337.163,173.406l-4.557,4.557L329.54,174.9l4.557-4.557A38.062,38.062,0,0,1,337.163,173.406Z" transform="translate(-222.716 -54.195)" fill="#bed3f7"/>
    <path id="Path_1968" data-name="Path 1968" d="M364.033,216.647l-5.961,2.47-1.662-4.006,5.961-2.469A36.843,36.843,0,0,1,364.033,216.647Z" transform="translate(-242.302 -85.028)" fill="#bed3f7"/>
    <path id="Path_1969" data-name="Path 1969" d="M135.093,215.11l-1.662,4.006-5.961-2.47a36.84,36.84,0,0,1,1.662-4.006Z" transform="translate(-75.422 -85.028)" fill="#bed3f7"/>
    <path id="Path_1970" data-name="Path 1970" d="M161.963,174.9l-3.066,3.066-4.557-4.557a38.062,38.062,0,0,1,3.066-3.066Z" transform="translate(-95.008 -54.195)" fill="#bed3f7"/>
    <path id="Path_1971" data-name="Path 1971" d="M203.116,149.431l-4.006,1.662-2.469-5.961a36.842,36.842,0,0,1,4.006-1.662Z" transform="translate(-125.842 -34.609)" fill="#bed3f7"/>
  </g>
</svg>
