<svg xmlns="http://www.w3.org/2000/svg" width="21.637" height="34.703" viewBox="0 0 21.637 34.703">
  <g id="favicon" transform="translate(17535.227 4168.96)">
    <path id="Vector" d="M10.757,12.2a4.6,4.6,0,1,1,4.609-4.6,1.505,1.505,0,0,0,3.011,0A7.62,7.62,0,1,0,5.83,13.389,10.723,10.723,0,0,0,0,22.918v3.643a1.505,1.505,0,0,0,3.011,0V22.918a7.746,7.746,0,0,1,15.491,0v3.643a1.506,1.506,0,0,0,3.012,0V22.918A10.752,10.752,0,0,0,10.757,12.2Z" transform="translate(-17535.227 -4162.319)" fill="#038175"/>
    <path id="Vector-2" data-name="Vector" d="M10.713.007a.094.094,0,0,1,.07,0L21.437,4.291a.093.093,0,0,1,0,.171L10.786,9.282a.094.094,0,0,1-.077,0L.054,4.462a.093.093,0,0,1,0-.171Z" transform="translate(-17535.084 -4168.96)" fill="#038175"/>
  </g>
</svg>
