<svg id="instagram_2_" data-name="instagram (2)" xmlns="http://www.w3.org/2000/svg" width="33" height="33" viewBox="0 0 33 33">
  <path id="Path_48603" data-name="Path 48603" d="M213.316,210.158A3.158,3.158,0,1,1,210.158,207,3.158,3.158,0,0,1,213.316,210.158Zm0,0" transform="translate(-193.658 -193.658)" fill="#fff"/>
  <path id="Path_48604" data-name="Path 48604" d="M150.638,137.668a3.138,3.138,0,0,0-1.8-1.8,5.242,5.242,0,0,0-1.759-.326c-1-.046-1.3-.055-3.829-.055s-2.83.01-3.829.055a5.246,5.246,0,0,0-1.759.326,3.139,3.139,0,0,0-1.8,1.8,5.244,5.244,0,0,0-.326,1.759c-.046,1-.055,1.3-.055,3.829s.01,2.829.055,3.829a5.242,5.242,0,0,0,.326,1.759,3.138,3.138,0,0,0,1.8,1.8,5.236,5.236,0,0,0,1.759.326c1,.046,1.3.055,3.828.055s2.83-.01,3.829-.055a5.236,5.236,0,0,0,1.759-.326,3.138,3.138,0,0,0,1.8-1.8,5.247,5.247,0,0,0,.326-1.759c.046-1,.055-1.3.055-3.829s-.01-2.83-.055-3.829A5.236,5.236,0,0,0,150.638,137.668Zm-7.386,10.453a4.865,4.865,0,1,1,4.865-4.865A4.865,4.865,0,0,1,143.252,148.121Zm5.058-8.786a1.137,1.137,0,1,1,1.137-1.137A1.137,1.137,0,0,1,148.31,139.335Zm0,0" transform="translate(-126.752 -126.756)" fill="#fff"/>
  <path id="Path_48605" data-name="Path 48605" d="M16.5,0A16.5,16.5,0,1,0,33,16.5,16.5,16.5,0,0,0,16.5,0Zm9.417,20.406a6.951,6.951,0,0,1-.44,2.3,4.845,4.845,0,0,1-2.771,2.771,6.956,6.956,0,0,1-2.3.44c-1.01.046-1.333.057-3.906.057s-2.9-.011-3.906-.057a6.956,6.956,0,0,1-2.3-.44,4.845,4.845,0,0,1-2.771-2.771,6.95,6.95,0,0,1-.44-2.3c-.047-1.011-.057-1.333-.057-3.906s.011-2.9.057-3.906a6.952,6.952,0,0,1,.44-2.3,4.848,4.848,0,0,1,2.771-2.771,6.958,6.958,0,0,1,2.3-.44c1.01-.046,1.333-.057,3.906-.057s2.9.011,3.906.057a6.959,6.959,0,0,1,2.3.44,4.846,4.846,0,0,1,2.771,2.771,6.951,6.951,0,0,1,.441,2.3c.046,1.01.057,1.333.057,3.906S25.964,19.4,25.917,20.406Zm0,0" fill="#fff"/>
</svg>
