<svg id="online-learning" xmlns="http://www.w3.org/2000/svg" width="86.746" height="80.707" viewBox="0 0 86.746 80.707">
  <g id="Group_41850" data-name="Group 41850" transform="translate(0 9.692)">
    <path id="Path_48677" data-name="Path 48677" d="M164.414,368.622h24.539V382.6H164.414Z" transform="translate(-137.644 -317.544)" fill="#a79ba7" fill-rule="evenodd"/>
    <path id="Path_48678" data-name="Path 48678" d="M289.279,368.622h1.9V382.6h-1.9Z" transform="translate(-239.873 -317.544)" fill="#837683" fill-rule="evenodd"/>
    <path id="Path_48679" data-name="Path 48679" d="M85.779,441.656h53.05v-4.09c0-2.249-2.3-4.09-5.119-4.09H90.9c-2.815,0-5.119,1.84-5.119,4.09Z" transform="translate(-73.264 -370.641)" fill="#c4c4c4" fill-rule="evenodd"/>
    <path id="Path_48680" data-name="Path 48680" d="M85.779,445.328h53.05v-4.09a3.9,3.9,0,0,0-2.065-3.277,3.376,3.376,0,0,1,.438,1.65v4.09H85.779Z" transform="translate(-73.264 -374.313)" fill="#d1d1d6" fill-rule="evenodd"/>
    <path id="Path_48681" data-name="Path 48681" d="M22.748,86.866H88.822a6.02,6.02,0,0,1,6,6v41.294a6.02,6.02,0,0,1-6,6H22.748a6.02,6.02,0,0,1-6-6V92.868a6.02,6.02,0,0,1,6-6Z" transform="translate(-16.746 -86.866)" fill="#bfbfbf" fill-rule="evenodd"/>
    <path id="Path_48682" data-name="Path 48682" d="M96.811,92.534a6.009,6.009,0,0,1,2.654,4.975V138.8a6.02,6.02,0,0,1-6,6H27.389a6.009,6.009,0,0,1-4.975-2.654,5.959,5.959,0,0,0,3.348,1.028H91.836a6.02,6.02,0,0,0,6-6V95.882a5.958,5.958,0,0,0-1.028-3.348Z" transform="translate(-21.386 -91.506)" fill="#d1d1d6" fill-rule="evenodd"/>
    <path id="Path_48683" data-name="Path 48683" d="M45.265,114.553h66.375a.835.835,0,0,1,.832.832v37.379H44.433V115.385A.835.835,0,0,1,45.265,114.553Z" transform="translate(-39.414 -109.534)" fill="#a5cdf2" fill-rule="evenodd"/>
    <path id="Path_48684" data-name="Path 48684" d="M397.219,114.553h3.253a.835.835,0,0,1,.832.832v37.379h-3.253V115.385A.835.835,0,0,0,397.219,114.553Z" transform="translate(-328.245 -109.534)" fill="#c4e2ff" fill-rule="evenodd"/>
  </g>
  <g id="Group_41851" data-name="Group 41851" transform="translate(9.813 0)">
    <path id="Path_48685" data-name="Path 48685" d="M104.4,94.323v.993a2.173,2.173,0,0,1-2.166,2.166H98.018a2.173,2.173,0,0,1-2.166-2.166v-.993H72.094a1.22,1.22,0,0,1-1.218-1.218V53.493a1.22,1.22,0,0,1,1.218-1.218h56.018a1.22,1.22,0,0,1,1.218,1.218V93.106a1.22,1.22,0,0,1-1.218,1.218H104.4Z" transform="translate(-70.876 -48.854)" fill="#8d9ca8" fill-rule="evenodd"/>
    <path id="Path_48686" data-name="Path 48686" d="M91.764,52.274h50.879V88.321a2.925,2.925,0,0,1-2.891,2.922c-6.691.071-15.182.751-21.167,3.962a2.891,2.891,0,0,1-2.763,0c-5.985-3.211-14.476-3.89-21.167-3.962a2.925,2.925,0,0,1-2.891-2.922V52.274Z" transform="translate(-87.977 -48.853)" fill="#8192a5" fill-rule="evenodd"/>
    <path id="Path_48687" data-name="Path 48687" d="M102.4,33.4c11.054.075,14.168,1.186,22.508,3.421,8.341-2.235,11.454-3.346,22.508-3.421a1.218,1.218,0,0,1,1.226,1.218V72.871a1.219,1.219,0,0,1-1.2,1.218c-8.1.086-16.19,1.072-21.954,4.164a1.186,1.186,0,0,1-1.151,0c-5.764-3.092-13.859-4.078-21.954-4.164a1.219,1.219,0,0,1-1.2-1.218V34.621A1.218,1.218,0,0,1,102.4,33.4Z" transform="translate(-95.677 -33.403)" fill="#d1d1d6" fill-rule="evenodd"/>
    <path id="Path_48688" data-name="Path 48688" d="M148.639,237.683v2.436a1.219,1.219,0,0,1-1.2,1.218c-8.1.086-16.19,1.072-21.954,4.164a1.186,1.186,0,0,1-1.151,0c-5.764-3.092-13.859-4.078-21.954-4.164a1.22,1.22,0,0,1-1.2-1.218v-2.436a1.219,1.219,0,0,0,1.2,1.218c8.1.086,16.19,1.072,21.954,4.164a1.186,1.186,0,0,0,1.151,0c5.764-3.092,13.859-4.078,21.954-4.164A1.219,1.219,0,0,0,148.639,237.683Z" transform="translate(-95.677 -200.65)" fill="#b1b1b5" fill-rule="evenodd"/>
    <path id="Path_48689" data-name="Path 48689" d="M232.1,36.824c8.341-2.235,11.454-3.347,22.508-3.421a1.218,1.218,0,0,1,1.226,1.218V72.871a1.219,1.219,0,0,1-1.2,1.218c-8.1.086-16.19,1.072-21.954,4.164a1.212,1.212,0,0,1-.576.149Z" transform="translate(-202.869 -33.403)" fill="#eceff1" fill-rule="evenodd"/>
    <path id="Path_48690" data-name="Path 48690" d="M255.83,237.683v2.436a1.219,1.219,0,0,1-1.2,1.218c-8.1.086-16.19,1.072-21.954,4.164a1.212,1.212,0,0,1-.576.149v-2.436a1.212,1.212,0,0,0,.576-.149c5.764-3.092,13.859-4.078,21.954-4.164A1.219,1.219,0,0,0,255.83,237.683Z" transform="translate(-202.869 -200.65)" fill="#d1d1d6" fill-rule="evenodd"/>
    <path id="Path_48691" data-name="Path 48691" d="M137.83,92.786a1.444,1.444,0,0,1-.838,2.764,43.174,43.174,0,0,0-6.051-1.336c-2.123-.322-4.292-.521-6.509-.636a1.447,1.447,0,0,1,.147-2.889c2.345.121,4.612.328,6.792.658A45.975,45.975,0,0,1,137.83,92.786ZM148.6,68.277a1.446,1.446,0,1,1-.725-2.8,57.264,57.264,0,0,1,6.9-1.4c2.1-.287,4.112-.426,6.318-.511a1.446,1.446,0,1,1,.1,2.889c-2.105.08-4.024.213-6.035.488A54.485,54.485,0,0,0,148.6,68.277Zm.017,6.833a1.444,1.444,0,1,1-.759-2.787,53.368,53.368,0,0,1,6.76-1.421c2.124-.3,4.213-.46,6.469-.555a1.446,1.446,0,0,1,.113,2.889c-2.147.091-4.143.243-6.186.532A50.5,50.5,0,0,0,148.62,75.11Zm.017,6.828a1.449,1.449,0,1,1-.793-2.787,50.149,50.149,0,0,1,6.641-1.427c2.144-.313,4.3-.489,6.6-.595a1.446,1.446,0,0,1,.125,2.889c-2.18.1-4.242.27-6.316.572a47.2,47.2,0,0,0-6.256,1.348Zm.011,6.812a1.447,1.447,0,1,1-.816-2.776,47.706,47.706,0,0,1,6.539-1.435c2.163-.323,4.381-.515,6.706-.629a1.446,1.446,0,1,1,.136,2.889c-2.2.108-4.323.294-6.423.606A44.808,44.808,0,0,0,148.648,88.749Zm.011,6.8a1.444,1.444,0,1,1-.838-2.764,45.972,45.972,0,0,1,6.459-1.438c2.18-.33,4.447-.537,6.792-.658a1.447,1.447,0,0,1,.147,2.889c-2.217.115-4.385.314-6.509.636A43.142,43.142,0,0,0,148.66,95.551ZM137.773,65.478a1.446,1.446,0,1,1-.725,2.8,54.474,54.474,0,0,0-6.559-1.336c-2.01-.275-3.929-.408-6.035-.488a1.446,1.446,0,1,1,.1-2.889c2.206.084,4.215.223,6.318.511A57.257,57.257,0,0,1,137.773,65.478Zm.017,6.844a1.444,1.444,0,0,1-.759,2.787,50.444,50.444,0,0,0-6.4-1.341c-2.043-.289-4.038-.442-6.186-.533a1.446,1.446,0,0,1,.113-2.889c2.256.1,4.345.255,6.469.555a53.36,53.36,0,0,1,6.76,1.421Zm.017,6.828a1.449,1.449,0,0,1-.793,2.787,47.269,47.269,0,0,0-6.256-1.348c-2.073-.3-4.136-.472-6.316-.572a1.446,1.446,0,1,1,.125-2.889c2.3.105,4.454.282,6.6.595A50.155,50.155,0,0,1,137.808,79.15Zm.011,6.823A1.447,1.447,0,1,1,137,88.749a44.8,44.8,0,0,0-6.142-1.344c-2.1-.313-4.22-.5-6.423-.606a1.446,1.446,0,1,1,.136-2.889c2.325.114,4.543.307,6.706.629a47.676,47.676,0,0,1,6.539,1.435Z" transform="translate(-113.599 -58.095)" fill="#a79ba7" fill-rule="evenodd"/>
  </g>
  <g id="Group_41852" data-name="Group 41852" transform="translate(27.522 11.096)">
    <path id="Path_48700" data-name="Path 48700" d="M11.518,0A11.518,11.518,0,1,1,0,11.518,11.518,11.518,0,0,1,11.518,0Z" fill="#e93c48"/>
    <path id="Path_48692" data-name="Path 48692" d="M226.769,94.613a11.518,11.518,0,1,1-1.179,22.976,11.519,11.519,0,0,0,0-22.916,11.629,11.629,0,0,1,1.179-.06Z" transform="translate(-215.252 -94.613)" fill="#fd4755" fill-rule="evenodd"/>
    <path id="Path_48693" data-name="Path 48693" d="M220.273,134.518l-8.021,4.631a.74.74,0,0,1-1.111-.641v-9.262a.74.74,0,0,1,1.111-.641l8.021,4.631a.74.74,0,0,1,0,1.282Z" transform="translate(-203.422 -122.359)" fill="#eceff1" fill-rule="evenodd"/>
    <path id="Path_48694" data-name="Path 48694" d="M220.273,134.517l-.932.538-7.089-4.093a.74.74,0,0,0-1.111.641v-2.359a.74.74,0,0,1,1.111-.641l8.021,4.631a.741.741,0,0,1,0,1.283Z" transform="translate(-203.422 -122.358)" fill="#d1d1d6" fill-rule="evenodd"/>
  </g>
  <g id="Group_41853" data-name="Group 41853" transform="translate(54.558 32.485)">
    <ellipse id="Ellipse_306" data-name="Ellipse 306" cx="8.064" cy="8.064" rx="8.064" ry="8.064" transform="translate(0 0.306) rotate(-1.088)" fill="#3d9ff0"/>
    <path id="Path_48695" data-name="Path 48695" d="M358.012,213.316a8.064,8.064,0,1,1-1.109,16.052,8.065,8.065,0,0,0,0-15.976A8.11,8.11,0,0,1,358.012,213.316Z" transform="translate(-349.797 -213.186)" fill="#60b7ff" fill-rule="evenodd"/>
  </g>
  <g id="Group_41854" data-name="Group 41854" transform="translate(60.477 38.262)">
    <path id="Path_48696" data-name="Path 48696" d="M354.388,261.729l-3.778-14.1a2.511,2.511,0,1,1,4.851-1.3l3.465,12.932a2.558,2.558,0,0,1,5.012-.838,2.321,2.321,0,0,1,4.52-.159l.1.364a2.266,2.266,0,0,1,4.3.25l2.722,10.159a5.75,5.75,0,0,1,.017,3.042,2.07,2.07,0,0,0,.013,1.054l.976,3.641a1.2,1.2,0,0,1-.849,1.471l-13.182,3.532a1.2,1.2,0,0,1-1.471-.849l-.976-3.641a2.026,2.026,0,0,0-1.459-1.465l-2.846-.774a4.846,4.846,0,0,1-3.52-2.974l-1.757-5.048a3.957,3.957,0,0,1,3.032-5.071Z" transform="translate(-350.351 -244.467)" fill="#f8cab0" fill-rule="evenodd"/>
    <path id="Path_48697" data-name="Path 48697" d="M356.734,245a2.488,2.488,0,0,1,.878-.434,2.519,2.519,0,0,1,3.075,1.776l3.464,12.929,1.087,4.056a.96.96,0,0,1-1.855.5l-1.087-4.056-3.464-12.929A2.521,2.521,0,0,0,356.734,245Zm8.431,12.1a2.567,2.567,0,0,1,2.143,1.828l1.087,4.056a.96.96,0,1,0,1.855-.5l-1.087-4.055a2.565,2.565,0,0,0-3.119-1.761A2.538,2.538,0,0,0,365.165,257.1Zm4.8-.019a2.3,2.3,0,0,1,.874-.451,2.328,2.328,0,0,1,2.843,1.641l1.184,4.42a.96.96,0,1,1-1.855.5l-1.184-4.419A2.329,2.329,0,0,0,369.967,257.082Zm4.46.658a2.274,2.274,0,0,1,1.794,1.644l2.722,10.159a5.748,5.748,0,0,1,.017,3.042,2.071,2.071,0,0,0,.013,1.054l.976,3.641a1.2,1.2,0,0,1-.849,1.471l1.855-.5a1.2,1.2,0,0,0,.849-1.471l-.976-3.641a2.072,2.072,0,0,1-.013-1.054,5.75,5.75,0,0,0-.017-3.042l-2.722-10.16a2.274,2.274,0,0,0-2.777-1.6A2.249,2.249,0,0,0,374.427,257.74Zm-16.641,4.6,1.6,5.973a.96.96,0,0,0,1.855-.5l-1.627-6.073-.838.224A5.2,5.2,0,0,0,357.786,262.337Z" transform="translate(-355.577 -244.477)" fill="#f1cbbc" fill-rule="evenodd"/>
    <path id="Path_48698" data-name="Path 48698" d="M419.639,402.589l-15.5,4.154.975,3.641a1.2,1.2,0,0,0,1.471.849l13.182-3.532a1.2,1.2,0,0,0,.849-1.471Z" transform="translate(-394.386 -373.924)" fill="#eceff1" fill-rule="evenodd"/>
    <path id="Path_48699" data-name="Path 48699" d="M481.268,402.589l-1.855.5.976,3.641a1.2,1.2,0,0,1-.849,1.471l1.855-.5a1.2,1.2,0,0,0,.849-1.471Z" transform="translate(-456.016 -373.924)" fill="#d1d1d6" fill-rule="evenodd"/>
  </g>
</svg>
