<svg xmlns="http://www.w3.org/2000/svg" width="33" height="33" viewBox="0 0 33 33">
  <path id="linkedin" d="M16.5,0A16.5,16.5,0,1,0,33,16.5,16.5,16.5,0,0,0,16.5,0ZM11.705,24.943H7.687V12.854h4.019ZM9.7,11.2H9.67a2.094,2.094,0,1,1,.053-4.177A2.1,2.1,0,1,1,9.7,11.2ZM26.2,24.943H22.177V18.476c0-1.625-.582-2.734-2.036-2.734a2.2,2.2,0,0,0-2.062,1.47,2.752,2.752,0,0,0-.132.981v6.751H13.929s.053-10.956,0-12.09h4.018v1.712a3.989,3.989,0,0,1,3.621-2c2.644,0,4.626,1.728,4.626,5.441Zm0,0" fill="#fff"/>
</svg>
