<svg id="phone-receiver-silhouette" xmlns="http://www.w3.org/2000/svg" width="17.589" height="18.873" viewBox="0 0 17.589 18.873">
  <path id="Path_48612" data-name="Path 48612" d="M16.491,13.136c-1.14-.975-2.3-1.566-3.423-.592l-.672.588c-.492.427-1.407,2.423-4.943-1.645s-1.432-4.7-.939-5.12l.676-.589c1.12-.976.7-2.2-.11-3.469l-.488-.766C5.779.281,4.9-.547,3.772.427l-.607.53A5.7,5.7,0,0,0,.945,4.728c-.405,2.679.873,5.748,3.8,9.114s5.787,5.06,8.5,5.03a5.712,5.712,0,0,0,4.04-1.673l.609-.531c1.12-.974.424-1.965-.717-2.942Z" transform="translate(-0.872 0)" fill="#fff"/>
</svg>
