<svg xmlns="http://www.w3.org/2000/svg" width="81.051" height="80.987" viewBox="0 0 81.051 80.987">
  <g id="group" transform="translate(0 -0.203)">
    <path id="Path_2047" data-name="Path 2047" d="M30.2,95.081H14.557a1.231,1.231,0,0,1-1.231-1.231V90.4a9.055,9.055,0,0,1,9.055-9.055h0A9.055,9.055,0,0,1,31.435,90.4V93.85A1.231,1.231,0,0,1,30.2,95.081Z" transform="translate(-11.216 -68.294)" fill="#c3da40"/>
    <path id="Path_2048" data-name="Path 2048" d="M134.318,258.008a7.762,7.762,0,0,1-3.35-3.946,8.067,8.067,0,0,1-4.858-7.484,7.977,7.977,0,0,1,7.838-8.092h9.976a8.1,8.1,0,0,1,0,16.183h-7.736a7.768,7.768,0,0,0,.08,2.067l.359,2.115a.338.338,0,0,1-.519.338Z" transform="translate(-106.146 -200.562)" fill="#ff62a7"/>
    <path id="Path_2049" data-name="Path 2049" d="M176.622,246.579a7.977,7.977,0,0,0-7.838-8.092h-9.976a7.582,7.582,0,0,0-3.162.691,12.861,12.861,0,0,0,12.889,11.931h6.74A8.229,8.229,0,0,0,176.622,246.579Z" transform="translate(-131.007 -200.563)" fill="#fc5479"/>
    <path id="Path_2050" data-name="Path 2050" d="M203.961,203.166a9.487,9.487,0,0,0,.217-3.136h-9.685a9.926,9.926,0,1,1-.151-19.85h12.52a10.015,10.015,0,0,1,10.063,9.806,9.888,9.888,0,0,1-6.161,9.3c-.814,2.465-3.129,4.222-4.933,5.264l-1.858,1.073a.338.338,0,0,1-.5-.369Z" transform="translate(-155.224 -151.486)" fill="#31d2f7"/>
    <path id="Path_2051" data-name="Path 2051" d="M192.53,192.955a9.936,9.936,0,0,1,9.924-10.079h11.289a10.12,10.12,0,0,0-6.881-2.7h-12.52a9.926,9.926,0,1,0,.151,19.85h1.224A9.809,9.809,0,0,1,192.53,192.955Z" transform="translate(-155.223 -151.486)" fill="#13ace8"/>
    <path id="Path_2052" data-name="Path 2052" d="M400.687,95.081H385.04a1.231,1.231,0,0,1-1.231-1.231V90.4a9.055,9.055,0,0,1,9.055-9.055h0a9.055,9.055,0,0,1,9.055,9.055V93.85A1.231,1.231,0,0,1,400.687,95.081Z" transform="translate(-323.051 -68.294)" fill="#ffcf59"/>
    <path id="Path_2053" data-name="Path 2053" d="M30.2,400.609H14.557a1.231,1.231,0,0,1-1.231-1.231v-3.454a9.055,9.055,0,0,1,9.055-9.055h0a9.055,9.055,0,0,1,9.055,9.055v3.454A1.232,1.232,0,0,1,30.2,400.609Z" transform="translate(-11.216 -325.456)" fill="#ff62a7"/>
    <path id="Path_2054" data-name="Path 2054" d="M400.687,400.609H385.04a1.231,1.231,0,0,1-1.231-1.231v-3.454a9.055,9.055,0,0,1,9.055-9.055h0a9.055,9.055,0,0,1,9.055,9.055v3.454A1.232,1.232,0,0,1,400.687,400.609Z" transform="translate(-323.051 -325.456)" fill="#31d2f7"/>
    <path id="Path_2055" data-name="Path 2055" d="M20.283,93.85V90.4a9.057,9.057,0,0,1,5.576-8.361,9.026,9.026,0,0,0-3.479-.694h0A9.055,9.055,0,0,0,13.325,90.4V93.85a1.231,1.231,0,0,0,1.231,1.231h6.958A1.231,1.231,0,0,1,20.283,93.85Z" transform="translate(-11.216 -68.294)" fill="#adbc15"/>
    <path id="Path_2056" data-name="Path 2056" d="M390.765,93.85V90.4a9.057,9.057,0,0,1,5.576-8.361,9.026,9.026,0,0,0-3.479-.694h0a9.055,9.055,0,0,0-9.055,9.055V93.85a1.231,1.231,0,0,0,1.231,1.231H392A1.231,1.231,0,0,1,390.765,93.85Z" transform="translate(-323.049 -68.294)" fill="#ffb55c"/>
    <path id="Path_2057" data-name="Path 2057" d="M20.283,399.378v-3.454a9.057,9.057,0,0,1,5.576-8.361,9.028,9.028,0,0,0-3.479-.694h0a9.055,9.055,0,0,0-9.055,9.055v3.454a1.231,1.231,0,0,0,1.231,1.231h6.958A1.231,1.231,0,0,1,20.283,399.378Z" transform="translate(-11.216 -325.456)" fill="#fc5479"/>
    <path id="Path_2058" data-name="Path 2058" d="M390.765,399.378v-3.454a9.057,9.057,0,0,1,5.576-8.361,9.028,9.028,0,0,0-3.479-.694h0a9.055,9.055,0,0,0-9.055,9.055v3.454a1.231,1.231,0,0,0,1.231,1.231H392A1.231,1.231,0,0,1,390.765,399.378Z" transform="translate(-323.049 -325.456)" fill="#13ace8"/>
    <g id="Group_987" data-name="Group 987" transform="translate(5.218 6.467)">
      <path id="Path_2059" data-name="Path 2059" d="M38.832,51.507A5.868,5.868,0,1,1,44.7,45.639,5.874,5.874,0,0,1,38.832,51.507Z" transform="translate(-32.964 -39.771)" fill="#fad393"/>
      <path id="Path_2060" data-name="Path 2060" d="M409.314,51.507a5.868,5.868,0,1,1,5.868-5.868A5.874,5.874,0,0,1,409.314,51.507Z" transform="translate(-344.798 -39.771)" fill="#fad393"/>
      <path id="Path_2061" data-name="Path 2061" d="M38.832,357.036a5.868,5.868,0,1,1,5.868-5.868A5.874,5.874,0,0,1,38.832,357.036Z" transform="translate(-32.964 -296.934)" fill="#fad393"/>
      <path id="Path_2062" data-name="Path 2062" d="M409.314,357.036a5.868,5.868,0,1,1,5.868-5.868A5.874,5.874,0,0,1,409.314,357.036Z" transform="translate(-344.798 -296.934)" fill="#fad393"/>
    </g>
    <g id="Group_988" data-name="Group 988" transform="translate(5.218 6.467)">
      <path id="Path_2063" data-name="Path 2063" d="M38.5,45.639a5.873,5.873,0,0,1,3.1-5.171,5.868,5.868,0,1,0,0,10.341A5.872,5.872,0,0,1,38.5,45.639Z" transform="translate(-32.963 -39.771)" fill="#edb769"/>
      <path id="Path_2064" data-name="Path 2064" d="M408.988,45.639a5.873,5.873,0,0,1,3.1-5.171,5.868,5.868,0,1,0,0,10.341A5.872,5.872,0,0,1,408.988,45.639Z" transform="translate(-344.798 -39.771)" fill="#edb769"/>
      <path id="Path_2065" data-name="Path 2065" d="M38.5,351.168A5.873,5.873,0,0,1,41.6,346a5.868,5.868,0,1,0,0,10.341A5.872,5.872,0,0,1,38.5,351.168Z" transform="translate(-32.963 -296.934)" fill="#edb769"/>
      <path id="Path_2066" data-name="Path 2066" d="M408.988,351.168a5.873,5.873,0,0,1,3.1-5.171,5.868,5.868,0,1,0,0,10.341A5.872,5.872,0,0,1,408.988,351.168Z" transform="translate(-344.798 -296.934)" fill="#edb769"/>
    </g>
    <path id="Path_2067" data-name="Path 2067" d="M124.851,25.23a1.314,1.314,0,0,0,.661-.178,37.875,37.875,0,0,1,3.93-1.984,1.319,1.319,0,0,0-1.049-2.419,40.533,40.533,0,0,0-4.2,2.123,1.319,1.319,0,0,0,.663,2.459Z" transform="translate(-103.976 -17.116)"/>
    <path id="Path_2068" data-name="Path 2068" d="M291.373,6.471a37.792,37.792,0,0,1,4.288,1,1.319,1.319,0,1,0,.751-2.528,40.442,40.442,0,0,0-4.588-1.075,1.319,1.319,0,0,0-.451,2.6Z" transform="translate(-244.327 -3.072)"/>
    <path id="Path_2069" data-name="Path 2069" d="M234.2,2.909l.079,0c.748-.044,1.509-.066,2.26-.066h0c.714,0,1.435.02,2.143.06a1.319,1.319,0,0,0,.147-2.633C238.073.225,237.3.2,236.541.2h0c-.8,0-1.615.024-2.415.071a1.319,1.319,0,0,0,.076,2.635Z" transform="translate(-196.015)"/>
    <path id="Path_2070" data-name="Path 2070" d="M489.615,190.289a1.319,1.319,0,0,0-.977,1.588,37.92,37.92,0,0,1,.769,4.337,1.319,1.319,0,0,0,1.308,1.165,1.332,1.332,0,0,0,.156-.009,1.319,1.319,0,0,0,1.155-1.464,40.54,40.54,0,0,0-.822-4.64A1.318,1.318,0,0,0,489.615,190.289Z" transform="translate(-411.255 -159.964)"/>
    <path id="Path_2071" data-name="Path 2071" d="M480.552,310.215a1.319,1.319,0,1,0,2.478.9,40.4,40.4,0,0,0,1.35-4.518,1.319,1.319,0,0,0-2.567-.606A37.781,37.781,0,0,1,480.552,310.215Z" transform="translate(-404.412 -256.527)"/>
    <path id="Path_2072" data-name="Path 2072" d="M346.2,22.759a37.916,37.916,0,0,1,3.939,1.974,1.319,1.319,0,1,0,1.317-2.285,40.512,40.512,0,0,0-4.215-2.111,1.319,1.319,0,1,0-1.041,2.423Z" transform="translate(-290.721 -16.855)"/>
    <path id="Path_2073" data-name="Path 2073" d="M7.689,305.27a1.319,1.319,0,0,0-.979,1.587,40.373,40.373,0,0,0,1.354,4.514,1.319,1.319,0,0,0,2.477-.9,37.754,37.754,0,0,1-1.265-4.218A1.318,1.318,0,0,0,7.689,305.27Z" transform="translate(-5.618 -256.744)"/>
    <path id="Path_2074" data-name="Path 2074" d="M177.585,7.681a1.317,1.317,0,0,0,.38-.056,37.785,37.785,0,0,1,4.284-1.019,1.319,1.319,0,1,0-.459-2.6,40.418,40.418,0,0,0-4.585,1.09,1.319,1.319,0,0,0,.379,2.582Z" transform="translate(-148.363 -3.187)"/>
    <path id="Path_2075" data-name="Path 2075" d="M495.27,247.347a1.318,1.318,0,0,0-1.319,1.318v.083a38.484,38.484,0,0,1-.253,4.4,1.319,1.319,0,1,0,2.62.3,41.1,41.1,0,0,0,.27-4.7v-.083A1.319,1.319,0,0,0,495.27,247.347Z" transform="translate(-415.538 -208.02)"/>
    <path id="Path_2076" data-name="Path 2076" d="M267.815,491.82a38.136,38.136,0,0,1-4.376.508,1.319,1.319,0,0,0,.075,2.635l.077,0a40.723,40.723,0,0,0,4.679-.544,1.318,1.318,0,1,0-.456-2.6Z" transform="translate(-220.69 -413.776)"/>
    <path id="Path_2077" data-name="Path 2077" d="M210.72,492.369a38.161,38.161,0,0,1-4.376-.5,1.319,1.319,0,1,0-.454,2.6,40.774,40.774,0,0,0,4.68.539l.076,0a1.319,1.319,0,0,0,.073-2.635Z" transform="translate(-172.378 -413.814)"/>
    <path id="Path_2078" data-name="Path 2078" d="M155.677,477.02a37.694,37.694,0,0,1-4.141-1.5,1.319,1.319,0,0,0-1.044,2.422,40.407,40.407,0,0,0,4.432,1.61,1.318,1.318,0,1,0,.754-2.527Z" transform="translate(-125.998 -399.979)"/>
    <path id="Path_2079" data-name="Path 2079" d="M2.787,198.141a1.317,1.317,0,0,0,1.46-1.16A37.9,37.9,0,0,1,5,192.642a1.319,1.319,0,0,0-2.568-.6,40.583,40.583,0,0,0-.808,4.642A1.318,1.318,0,0,0,2.787,198.141Z" transform="translate(-1.362 -160.611)"/>
    <path id="Path_2080" data-name="Path 2080" d="M323.9,475.418a37.8,37.8,0,0,1-4.138,1.508,1.319,1.319,0,1,0,.757,2.527,40.418,40.418,0,0,0,4.428-1.614,1.319,1.319,0,0,0-1.047-2.421Z" transform="translate(-268.348 -399.896)"/>
    <path id="Path_2081" data-name="Path 2081" d="M1.737,255.315a1.318,1.318,0,0,0,1.157-1.463,38.448,38.448,0,0,1-.257-4.4,1.318,1.318,0,0,0-1.319-1.317h0A1.319,1.319,0,0,0,0,249.456a41.1,41.1,0,0,0,.275,4.7,1.319,1.319,0,0,0,1.308,1.166A1.341,1.341,0,0,0,1.737,255.315Z" transform="translate(0 -208.685)"/>
    <path id="Path_2082" data-name="Path 2082" d="M7.5,55.24H22.739a2.806,2.806,0,0,0,2.8-2.8V49.261a9.521,9.521,0,0,0-.509-3.083,1.19,1.19,0,1,0-2.252.769,7.149,7.149,0,0,1,.382,2.314v3.177a.424.424,0,0,1-.423.423H7.5a.424.424,0,0,1-.423-.423V49.261a7.174,7.174,0,0,1,2.385-5.336,6.963,6.963,0,1,0-1.1-2.176A9.555,9.555,0,0,0,4.7,49.261v3.177A2.805,2.805,0,0,0,7.5,55.24Zm7.539-20.1a4.6,4.6,0,1,1-4.6,4.6A4.6,4.6,0,0,1,15.044,35.137Z" transform="translate(-3.958 -27.401)"/>
    <path id="Path_2083" data-name="Path 2083" d="M375.652,49.262v3.177a2.806,2.806,0,0,0,2.8,2.8h15.235a2.806,2.806,0,0,0,2.8-2.8V49.262a9.522,9.522,0,0,0-.509-3.083,1.19,1.19,0,1,0-2.252.769,7.153,7.153,0,0,1,.382,2.314v3.177a.424.424,0,0,1-.423.423H378.455a.424.424,0,0,1-.423-.423V49.262a7.174,7.174,0,0,1,2.385-5.336,6.962,6.962,0,1,0-1.1-2.176A9.553,9.553,0,0,0,375.652,49.262Zm10.341-14.124a4.6,4.6,0,1,1-4.6,4.6A4.6,4.6,0,0,1,385.993,35.138Z" transform="translate(-316.185 -27.402)"/>
    <path id="Path_2084" data-name="Path 2084" d="M394.472,350.305a1.19,1.19,0,0,0-.742,1.51,7.153,7.153,0,0,1,.382,2.314v3.177a.424.424,0,0,1-.423.423H378.454a.424.424,0,0,1-.423-.423V354.13a7.174,7.174,0,0,1,2.385-5.336,6.962,6.962,0,1,0-1.1-2.176,9.555,9.555,0,0,0-3.661,7.512v3.177a2.806,2.806,0,0,0,2.8,2.8h15.235a2.806,2.806,0,0,0,2.8-2.8V354.13a9.521,9.521,0,0,0-.509-3.083A1.19,1.19,0,0,0,394.472,350.305Zm-8.479-10.3a4.6,4.6,0,1,1-4.6,4.6A4.6,4.6,0,0,1,385.993,340.006Z" transform="translate(-316.185 -284.009)"/>
    <path id="Path_2085" data-name="Path 2085" d="M23.522,350.305a1.19,1.19,0,0,0-.742,1.51,7.148,7.148,0,0,1,.382,2.314v3.177a.424.424,0,0,1-.423.423H7.5a.424.424,0,0,1-.423-.423V354.13a7.174,7.174,0,0,1,2.385-5.336,6.962,6.962,0,1,0-1.1-2.176A9.555,9.555,0,0,0,4.7,354.13v3.177a2.806,2.806,0,0,0,2.8,2.8H22.739a2.806,2.806,0,0,0,2.8-2.8V354.13a9.521,9.521,0,0,0-.509-3.083A1.19,1.19,0,0,0,23.522,350.305Zm-8.479-10.3a4.6,4.6,0,1,1-4.6,4.6A4.6,4.6,0,0,1,15.044,340.006Z" transform="translate(-3.958 -284.009)"/>
    <path id="Path_2086" data-name="Path 2086" d="M152.021,173.165H139.362a11.051,11.051,0,0,0-10.885,9.23h-.432a9.088,9.088,0,0,0-8.948,9.2,9.189,9.189,0,0,0,5.086,8.3c1.527,3.7,6.292,5.473,6.5,5.55a1.19,1.19,0,0,0,1.491-1.609,8.609,8.609,0,0,1-.805-3.04h6.649a8.958,8.958,0,0,0,8.217-5.564h1.894a10.339,10.339,0,0,1-1.056,4.107,1.189,1.189,0,0,0,1.473,1.627c.264-.093,6.269-2.259,8.112-6.757a11.036,11.036,0,0,0-4.64-21.048Zm3.253,19.057a1.17,1.17,0,0,0-.68.723c-.668,2.084-2.7,3.636-4.376,4.6a10.685,10.685,0,0,0,.235-3.628,1.193,1.193,0,0,0-1.183-1.064h-9.907a8.594,8.594,0,0,1-3.224-.625,1.183,1.183,0,0,0-1.282.255l-.017.017a1.181,1.181,0,0,0,.4,1.929,10.962,10.962,0,0,0,4.127.8h4.211a6.516,6.516,0,0,1-5.553,3.184h-7.807a1.187,1.187,0,0,0-1.182,1.051,8.976,8.976,0,0,0,.082,2.5,6.739,6.739,0,0,1-2.841-3.275,1.229,1.229,0,0,0-.684-.768,6.8,6.8,0,0,1-4.113-6.328,6.707,6.707,0,0,1,6.569-6.823h.3a10.944,10.944,0,0,0,.78,3.535,1.181,1.181,0,0,0,1.931.4l.017-.017a1.181,1.181,0,0,0,.257-1.277,8.6,8.6,0,0,1-.619-3.407,8.736,8.736,0,0,1,8.776-8.463h12.391a8.8,8.8,0,0,1,8.8,8.684A8.624,8.624,0,0,1,155.274,192.222Z" transform="translate(-100.244 -145.582)"/>
  </g>
</svg>
