<svg id="Layer_2" data-name="Layer 2" xmlns="http://www.w3.org/2000/svg" width="40" height="40" viewBox="0 0 40 40">
  <g id="upload_arrow">
    <circle id="background" cx="20" cy="20" r="20" fill="#038175"/>
    <g id="Group_41767" data-name="Group 41767" transform="translate(10.422 9.048)">
      <path id="Path_48617" data-name="Path 48617" d="M143.139,299.467h-5.321a4.055,4.055,0,0,1-4.2-4.18q-.007-1.273,0-2.547a1.353,1.353,0,1,1,2.7-.008c.005.874,0,1.729,0,2.593a1.323,1.323,0,0,0,1.449,1.435h10.778A1.325,1.325,0,0,0,150,295.326c.006-.864,0-1.729,0-2.593a1.352,1.352,0,1,1,2.7.006,28.052,28.052,0,0,1-.086,3.313,3.942,3.942,0,0,1-3.974,3.413C146.807,299.471,144.973,299.467,143.139,299.467Z" transform="translate(-133.615 -277.626)" fill="#fff"/>
      <path id="Path_48618" data-name="Path 48618" d="M174.079,120.659c-.206.192-.327.3-.439.41-.864.873-1.724,1.751-2.592,2.621a1.377,1.377,0,1,1-1.961-1.915q2.647-2.663,5.31-5.307a1.372,1.372,0,0,1,2.064,0q2.682,2.66,5.342,5.342a1.372,1.372,0,1,1-1.955,1.918c-.881-.878-1.75-1.769-2.625-2.652-.113-.114-.234-.22-.414-.39-.012.245-.026.4-.026.562q0,4.188,0,8.374a1.337,1.337,0,0,1-1.881,1.3,1.309,1.309,0,0,1-.818-1.341q0-4.142,0-8.283Z" transform="translate(-165.885 -116)" fill="#fff"/>
    </g>
  </g>
</svg>
